<svg version="1.1" xmlns="http://www.w3.org/2000/svg" viewBox="0 0 1227 781.5" width="1227" height="781.5">
  <!-- svg-source:excalidraw -->
  
  <defs>
    <style class="style-fonts">
      @font-face {
        font-family: "Virgil";
        src: url("https://excalidraw.com/Virgil.woff2");
      }
      @font-face {
        font-family: "Cascadia";
        src: url("https://excalidraw.com/Cascadia.woff2");
      }
      @font-face {
        font-family: "Assistant";
        src: url("https://excalidraw.com/Assistant-Regular.woff2");
      }
    </style>
    
  </defs>
  <rect x="0" y="0" width="1227" height="781.5" fill="#ffffff"></rect><g stroke-linecap="round" transform="translate(304 245) rotate(0 104 55)"><path d="M122.44 0.47 C135.8 0.91, 150.92 5.14, 162.47 9.27 C174.02 13.39, 184.4 18.91, 191.72 25.22 C199.05 31.52, 204.33 39.67, 206.42 47.1 C208.51 54.53, 208 62.6, 204.28 69.79 C200.55 76.98, 193.16 84.46, 184.07 90.26 C174.98 96.05, 162.6 101.3, 149.74 104.56 C136.87 107.83, 121.18 109.76, 106.87 109.83 C92.56 109.9, 77.04 107.91, 63.88 104.99 C50.72 102.07, 37.61 97.54, 27.9 92.3 C18.2 87.06, 10.39 80.42, 5.66 73.55 C0.94 66.67, -1.69 58.41, -0.43 51.04 C0.82 43.67, 6.41 35.86, 13.19 29.34 C19.97 22.82, 29.26 16.66, 40.25 11.92 C51.24 7.18, 62.82 2.24, 79.12 0.9 C95.42 -0.43, 126.05 2.83, 138.04 3.91 C150.03 4.99, 151.54 6.62, 151.07 7.38 M85.62 1.33 C98.75 -0.59, 115.98 0.49, 129.5 2.29 C143.02 4.08, 155.9 7.67, 166.75 12.08 C177.59 16.5, 187.64 22.11, 194.56 28.78 C201.49 35.45, 206.92 44.61, 208.3 52.09 C209.67 59.56, 207.88 66.84, 202.79 73.62 C197.7 80.41, 187.54 87.2, 177.76 92.8 C167.98 98.4, 156.85 104.27, 144.11 107.23 C131.36 110.18, 115.69 111.16, 101.29 110.55 C86.9 109.94, 70.36 106.72, 57.76 103.55 C45.15 100.37, 34.42 96.97, 25.66 91.5 C16.89 86.03, 9.37 78.24, 5.16 70.74 C0.95 63.24, -1.48 54.12, 0.4 46.5 C2.27 38.87, 8.8 31.08, 16.4 25.01 C24 18.93, 34.43 14.05, 46 10.07 C57.57 6.09, 78.93 2.42, 85.81 1.15 C92.68 -0.12, 87.17 1.74, 87.23 2.45" stroke="#1e1e1e" stroke-width="2" fill="none"></path></g><g stroke-linecap="round" transform="translate(504 285) rotate(0 14 14)"><path d="M7 0 C11.65 -0.71, 12.35 -0.74, 21 0 M7 0 C9.79 0.17, 13.17 -0.31, 21 0 M21 0 C26.42 1.48, 29.9 0.95, 28 7 M21 0 C24.01 1.59, 29.43 1.97, 28 7 M28 7 C29.31 10.36, 28.49 12.73, 28 21 M28 7 C28.69 10.87, 28.61 16.69, 28 21 M28 21 C27.38 27.65, 25.04 27.87, 21 28 M28 21 C26.9 27.38, 25.08 27.66, 21 28 M21 28 C14.46 27.45, 9.94 27.21, 7 28 M21 28 C18.48 27.39, 14.57 27.73, 7 28 M7 28 C0.49 29.2, 1.84 24.81, 0 21 M7 28 C0.95 27.23, -1.72 26.54, 0 21 M0 21 C-0.01 15.1, 0.58 10.74, 0 7 M0 21 C0.48 16.84, 0.01 12.42, 0 7 M0 7 C0.64 1.79, 0.72 -1.52, 7 0 M0 7 C-1.84 2, 0.44 1.7, 7 0" stroke="#1e1e1e" stroke-width="2" fill="none"></path></g><g stroke-linecap="round" transform="translate(532 285) rotate(0 14 14)"><path d="M7 0 C8.57 0.91, 14 -0.53, 21 0 M7 0 C10.62 0.75, 14.29 0.56, 21 0 M21 0 C25.82 -0.59, 29 3.34, 28 7 M21 0 C25.94 -0.57, 27.86 3.81, 28 7 M28 7 C28.44 11.24, 26.87 15.17, 28 21 M28 7 C28.5 10.34, 27.6 12.87, 28 21 M28 21 C26.56 24.38, 24.9 26.09, 21 28 M28 21 C26.28 23.55, 27.45 28.12, 21 28 M21 28 C17.06 28.21, 12.4 28.58, 7 28 M21 28 C15.82 27.66, 10.85 27.96, 7 28 M7 28 C3.22 26.64, 0.29 23.84, 0 21 M7 28 C1.18 26.11, -1.74 26.86, 0 21 M0 21 C-1.34 16.38, -0.02 13.24, 0 7 M0 21 C-0.31 14.76, -0.51 9.37, 0 7 M0 7 C0.7 1.24, 0.52 0.77, 7 0 M0 7 C-0.94 3.94, 3.12 -1.08, 7 0" stroke="#1e1e1e" stroke-width="2" fill="none"></path></g><g stroke-linecap="round" transform="translate(560 285) rotate(0 14 14)"><path d="M7 0 C10.87 0.76, 12.89 -0.42, 21 0 M7 0 C11.37 -0.13, 16.07 -0.72, 21 0 M21 0 C26.04 1.28, 26.95 2.74, 28 7 M21 0 C27.22 -0.43, 26.5 0.92, 28 7 M28 7 C26.83 10.91, 28.81 17.49, 28 21 M28 7 C28.5 11.43, 27.95 15.13, 28 21 M28 21 C27.6 24.66, 24.29 29.61, 21 28 M28 21 C29.32 25.85, 24.38 26.71, 21 28 M21 28 C16.01 27.02, 13.08 28.93, 7 28 M21 28 C17.4 27.82, 14.21 28.02, 7 28 M7 28 C3.22 26, -1.64 24.91, 0 21 M7 28 C3.8 27.6, 1.29 25.29, 0 21 M0 21 C-1 16.18, 1.16 9.99, 0 7 M0 21 C0.45 17.55, 0.02 13.98, 0 7 M0 7 C1.27 2.19, 3.84 -0.26, 7 0 M0 7 C0.58 3.88, 0.8 -1.01, 7 0" stroke="#1e1e1e" stroke-width="2" fill="none"></path></g><g stroke-linecap="round" transform="translate(588 285) rotate(0 14 14)"><path d="M7 0 C11.13 -0.51, 15.73 -1.14, 21 0 M7 0 C11.02 -0.67, 16.04 0.47, 21 0 M21 0 C24.62 0.41, 29.35 1.96, 28 7 M21 0 C24.16 -1.42, 29.25 4.19, 28 7 M28 7 C28.57 10.59, 27.54 11.74, 28 21 M28 7 C28.21 11.85, 27.99 15.55, 28 21 M28 21 C26.63 27.27, 26.82 28.16, 21 28 M28 21 C26.71 24.38, 25.73 29.59, 21 28 M21 28 C17.25 28.82, 11.37 29.05, 7 28 M21 28 C16.11 27.95, 12.36 27.26, 7 28 M7 28 C0.69 27.24, 1.28 25.32, 0 21 M7 28 C3.62 27.62, 1.68 26.29, 0 21 M0 21 C1.29 17.17, -0.39 15.44, 0 7 M0 21 C0.01 17.9, 0.33 13.94, 0 7 M0 7 C1.51 2.08, 2.83 1.34, 7 0 M0 7 C-1.54 1.33, 0.13 -0.25, 7 0" stroke="#1e1e1e" stroke-width="2" fill="none"></path></g><g stroke-linecap="round" transform="translate(199 286) rotate(0 14 14)"><path d="M7 0 C11.53 -0.17, 17.1 -1.19, 21 0 M7 0 C11.66 -0.56, 15.78 0.76, 21 0 M21 0 C25.05 -0.83, 29.16 0.65, 28 7 M21 0 C25.55 0.05, 26.26 2.12, 28 7 M28 7 C27.96 13.25, 29.15 17.89, 28 21 M28 7 C27.79 11.49, 28.7 15.35, 28 21 M28 21 C27.8 26.26, 27.1 26.91, 21 28 M28 21 C26.14 26.08, 27.2 29.34, 21 28 M21 28 C16.57 27.31, 14.09 27.37, 7 28 M21 28 C17.18 28.19, 12.91 27.75, 7 28 M7 28 C3.33 28.8, -1.04 23.83, 0 21 M7 28 C1.32 29.77, -0.3 26.95, 0 21 M0 21 C-0.17 14.4, -0.52 10.31, 0 7 M0 21 C-0.25 17.57, -0.24 12.9, 0 7 M0 7 C1.13 1.21, 3.5 0.18, 7 0 M0 7 C-1.48 2.08, 3.97 1.17, 7 0" stroke="#1e1e1e" stroke-width="2" fill="none"></path></g><g stroke-linecap="round" transform="translate(227 286) rotate(0 14 14)"><path d="M7 0 C10.7 -1.28, 12.79 0.72, 21 0 M7 0 C10.93 0.81, 13.67 -0.17, 21 0 M21 0 C26.83 -1.68, 27.9 2.37, 28 7 M21 0 C23.92 -0.21, 30.16 3.11, 28 7 M28 7 C29.1 10.64, 27.7 14.53, 28 21 M28 7 C28.66 13.09, 27.89 18.31, 28 21 M28 21 C29.43 24.58, 24.05 28.36, 21 28 M28 21 C29.54 27.01, 23.87 28.81, 21 28 M21 28 C16.35 27.33, 13.22 28.75, 7 28 M21 28 C17.16 27.76, 12.56 28.32, 7 28 M7 28 C1.29 26.17, -0.88 27.21, 0 21 M7 28 C2.03 29.29, 2.27 25.41, 0 21 M0 21 C-0.51 17.1, -0.47 11.31, 0 7 M0 21 C-0.27 15.9, 0.47 11.75, 0 7 M0 7 C1.16 2.52, 1.05 -0.22, 7 0 M0 7 C1.64 3.5, 1.53 -0.63, 7 0" stroke="#1e1e1e" stroke-width="2" fill="none"></path></g><g stroke-linecap="round" transform="translate(255 286) rotate(0 14 14)"><path d="M7 0 C10.85 0.82, 14.04 1.16, 21 0 M7 0 C9.72 -0.43, 13.28 -0.72, 21 0 M21 0 C25.56 0.04, 26.48 2.15, 28 7 M21 0 C27.83 0.78, 27.31 2.19, 28 7 M28 7 C27.82 11.9, 29.46 16.45, 28 21 M28 7 C28.07 12.58, 28.64 17.38, 28 21 M28 21 C26.39 26.02, 27 29.17, 21 28 M28 21 C26.2 26.48, 25.26 25.82, 21 28 M21 28 C17.59 28.76, 14.13 28.94, 7 28 M21 28 C16.81 28.23, 11.55 27.3, 7 28 M7 28 C1.46 29.54, -0.26 26.79, 0 21 M7 28 C4.61 27.74, 0.29 25.35, 0 21 M0 21 C-0.43 16.89, 0.28 13.95, 0 7 M0 21 C0.46 15.84, 0.47 11.52, 0 7 M0 7 C-1.29 2.12, 3.76 1.02, 7 0 M0 7 C-0.8 1.71, 3.52 -0.48, 7 0" stroke="#1e1e1e" stroke-width="2" fill="none"></path></g><g stroke-linecap="round" transform="translate(283 286) rotate(0 14 14)"><path d="M7 0 C9.13 0.96, 11.51 0.91, 21 0 M7 0 C12.97 -0.53, 18.09 0.07, 21 0 M21 0 C24.15 -0.18, 29.88 3.01, 28 7 M21 0 C24.98 -0.15, 29.2 4.15, 28 7 M28 7 C29.32 10.64, 29.15 16.52, 28 21 M28 7 C28.49 11.9, 27.42 17.69, 28 21 M28 21 C29.34 26.84, 24.1 28.7, 21 28 M28 21 C27.59 23.49, 24.57 26.85, 21 28 M21 28 C17.6 29.09, 14.15 29.2, 7 28 M21 28 C16.98 27.42, 13.38 28.6, 7 28 M7 28 C2.07 29.12, 1.98 25.44, 0 21 M7 28 C2.63 27.69, -1.67 24.79, 0 21 M0 21 C0.28 15.64, 0.62 10.97, 0 7 M0 21 C0.33 18.21, -0.53 15.22, 0 7 M0 7 C1.42 3.35, 1.63 -0.55, 7 0 M0 7 C1.19 1.85, 2.66 1.71, 7 0" stroke="#1e1e1e" stroke-width="2" fill="none"></path></g><g stroke-linecap="round" transform="translate(241 575) rotate(0 14 17.5)"><path d="M7 0 C9.51 0.99, 14.85 0.31, 21 0 M7 0 C11.58 -0.34, 16.71 0.15, 21 0 M21 0 C26.6 0.39, 29.2 3.54, 28 7 M21 0 C25.95 -1.25, 28.62 4.42, 28 7 M28 7 C29.45 15.15, 28.98 21.65, 28 28 M28 7 C28.51 14.92, 27.64 24.16, 28 28 M28 28 C29.35 34.38, 26.49 35.26, 21 35 M28 28 C26.89 31.74, 23.54 32.83, 21 35 M21 35 C16.97 36, 13.89 35.3, 7 35 M21 35 C16.05 34.34, 9.9 34.99, 7 35 M7 35 C3.45 35.64, 0.71 31.1, 0 28 M7 35 C1.95 34, -1.12 34.29, 0 28 M0 28 C-1.32 18.64, 1.55 14.33, 0 7 M0 28 C-0.36 21.96, 0.85 15.12, 0 7 M0 7 C0.06 2.66, 3.52 -0.35, 7 0 M0 7 C-0.03 1.58, 4.14 -1.19, 7 0" stroke="#1e1e1e" stroke-width="2" fill="none"></path></g><g transform="translate(247.11999988555908 580) rotate(0 7.880000114440918 12.5)"><text x="7.880000114440918" y="0" font-family="Virgil, Segoe UI Emoji" font-size="20px" fill="#1e1e1e" text-anchor="middle" style="white-space: pre;" direction="ltr" dominant-baseline="text-before-edge">id</text></g><g stroke-linecap="round" transform="translate(269 576) rotate(0 41 42)"><path d="M20.5 0 C32.83 -1.76, 43.24 1.36, 61.5 0 M20.5 0 C35.33 0.31, 49.27 0.02, 61.5 0 M61.5 0 C74.58 -0.99, 81.4 6.64, 82 20.5 M61.5 0 C73.93 0.44, 80.24 8.96, 82 20.5 M82 20.5 C80.27 29.76, 80.47 40.23, 82 63.5 M82 20.5 C81.98 35.07, 82.47 50.39, 82 63.5 M82 63.5 C83.41 78.04, 76.05 84.08, 61.5 84 M82 63.5 C81.65 76.8, 74.2 85.07, 61.5 84 M61.5 84 C44.18 83.65, 27.52 84.9, 20.5 84 M61.5 84 C49.86 83.31, 38.05 84.85, 20.5 84 M20.5 84 C5.47 84.68, -1.37 77.2, 0 63.5 M20.5 84 C5.44 85.16, 0.5 78.13, 0 63.5 M0 63.5 C0.28 45.27, -1.99 28.81, 0 20.5 M0 63.5 C0.93 48.65, 0.6 31.82, 0 20.5 M0 20.5 C0.8 8.02, 5.78 1.03, 20.5 0 M0 20.5 C0.19 7.2, 5.66 -2.28, 20.5 0" stroke="#1e1e1e" stroke-width="2" fill="none"></path></g><g transform="translate(285.3199996948242 605.5) rotate(0 24.68000030517578 12.5)"><text x="24.68000030517578" y="0" font-family="Virgil, Segoe UI Emoji" font-size="20px" fill="#1e1e1e" text-anchor="middle" style="white-space: pre;" direction="ltr" dominant-baseline="text-before-edge">data</text></g><g stroke-linecap="round" transform="translate(372 589.5) rotate(0 14 17.5)"><path d="M7 0 C9.23 -0.32, 14.46 0.52, 21 0 M7 0 C12.48 0.05, 17.15 0.6, 21 0 M21 0 C23.68 1.8, 28.61 2.74, 28 7 M21 0 C25.93 1.88, 29.4 3.91, 28 7 M28 7 C26.06 14.82, 29.37 20.83, 28 28 M28 7 C28.73 12.64, 28.88 16.97, 28 28 M28 28 C27.8 30.78, 27.2 35.44, 21 35 M28 28 C28.25 32.27, 27.88 36.7, 21 35 M21 35 C15.35 35.67, 8.54 34.97, 7 35 M21 35 C16.22 34.44, 9.78 35.52, 7 35 M7 35 C2.55 36.02, -0.67 30.93, 0 28 M7 35 C1.37 33.49, 1.47 33.84, 0 28 M0 28 C-1.7 21.69, -1.31 13.82, 0 7 M0 28 C-0.66 22.43, 1.11 16.06, 0 7 M0 7 C1.1 3.29, 1.87 1.9, 7 0 M0 7 C0.24 3.94, 2.33 0.45, 7 0" stroke="#1e1e1e" stroke-width="2" fill="none"></path></g><g transform="translate(378.1199998855591 594.5) rotate(0 7.880000114440918 12.5)"><text x="7.880000114440918" y="0" font-family="Virgil, Segoe UI Emoji" font-size="20px" fill="#1e1e1e" text-anchor="middle" style="white-space: pre;" direction="ltr" dominant-baseline="text-before-edge">id</text></g><g stroke-linecap="round" transform="translate(400 590.5) rotate(0 41 42)"><path d="M20.5 0 C32.92 0.22, 44.99 1.82, 61.5 0 M20.5 0 C32.66 0.5, 47.11 -0.2, 61.5 0 M61.5 0 C75.39 1.63, 83.22 8.2, 82 20.5 M61.5 0 C74.93 -2.03, 82.39 4.82, 82 20.5 M82 20.5 C81.43 36.03, 81.58 55.45, 82 63.5 M82 20.5 C82.33 33.72, 83.19 49.06, 82 63.5 M82 63.5 C82.22 76.83, 77.09 85.48, 61.5 84 M82 63.5 C84.29 77.06, 74.47 83.91, 61.5 84 M61.5 84 C48.78 84.06, 33.17 85.71, 20.5 84 M61.5 84 C52.78 84.8, 43.51 83.42, 20.5 84 M20.5 84 C5.99 82.69, 1.28 78.19, 0 63.5 M20.5 84 C6.81 83.82, -1.56 75.19, 0 63.5 M0 63.5 C-0.41 48.93, 1.31 36.14, 0 20.5 M0 63.5 C0.15 51.08, -0.63 38.65, 0 20.5 M0 20.5 C0.21 8.23, 6.83 0.39, 20.5 0 M0 20.5 C2.29 8.24, 8.84 -1.92, 20.5 0" stroke="#1e1e1e" stroke-width="2" fill="none"></path></g><g transform="translate(416.3199996948242 620) rotate(0 24.68000030517578 12.5)"><text x="24.68000030517578" y="0" font-family="Virgil, Segoe UI Emoji" font-size="20px" fill="#1e1e1e" text-anchor="middle" style="white-space: pre;" direction="ltr" dominant-baseline="text-before-edge">data</text></g><g stroke-linecap="round" transform="translate(215 681.5) rotate(0 14 17.5)"><path d="M7 0 C10 1.09, 13.94 0.99, 21 0 M7 0 C12.41 -0.54, 17.57 0.67, 21 0 M21 0 C23.7 -1, 26.93 3.87, 28 7 M21 0 C23.92 -0.06, 26.28 3.22, 28 7 M28 7 C26.69 12.01, 26.59 16.7, 28 28 M28 7 C28.45 14.29, 27.68 22.55, 28 28 M28 28 C26.84 31.91, 23.67 34.44, 21 35 M28 28 C29.72 31.71, 26.37 34.34, 21 35 M21 35 C17.85 34.31, 11.41 34.34, 7 35 M21 35 C17.26 35.71, 12 34.7, 7 35 M7 35 C3.27 33.59, -0.38 33.6, 0 28 M7 35 C1.02 33.33, 0.77 33.46, 0 28 M0 28 C-1.17 19.05, -0.53 9.46, 0 7 M0 28 C-0.21 20.27, -0.45 14.95, 0 7 M0 7 C0.19 3.62, 1.73 0.72, 7 0 M0 7 C1.22 3.67, 3.56 -0.07, 7 0" stroke="#1e1e1e" stroke-width="2" fill="none"></path></g><g transform="translate(221.11999988555908 686.5) rotate(0 7.880000114440918 12.5)"><text x="7.880000114440918" y="0" font-family="Virgil, Segoe UI Emoji" font-size="20px" fill="#1e1e1e" text-anchor="middle" style="white-space: pre;" direction="ltr" dominant-baseline="text-before-edge">id</text></g><g stroke-linecap="round" transform="translate(243 682.5) rotate(0 41 42)"><path d="M20.5 0 C37.91 -0.43, 50.42 -0.39, 61.5 0 M20.5 0 C28.12 -0.83, 37.17 0.43, 61.5 0 M61.5 0 C73.65 -0.05, 80.5 7.61, 82 20.5 M61.5 0 C73.51 0.74, 80.53 5.25, 82 20.5 M82 20.5 C82.88 33.93, 80.56 48.11, 82 63.5 M82 20.5 C81.28 31.88, 80.86 43.74, 82 63.5 M82 63.5 C83.49 76.34, 75.77 83.43, 61.5 84 M82 63.5 C82 78.02, 73.31 85.74, 61.5 84 M61.5 84 C51.07 83.32, 41.3 85.52, 20.5 84 M61.5 84 C45.95 83.08, 29.27 84.25, 20.5 84 M20.5 84 C5.69 82.55, 0.67 77.86, 0 63.5 M20.5 84 C9.09 83.53, 1.46 75.77, 0 63.5 M0 63.5 C0.73 52.9, 1.77 40.02, 0 20.5 M0 63.5 C0.24 54.65, -0.15 44.88, 0 20.5 M0 20.5 C1.06 7.99, 7.9 -0.06, 20.5 0 M0 20.5 C2.06 5.46, 7.72 -2, 20.5 0" stroke="#1e1e1e" stroke-width="2" fill="none"></path></g><g transform="translate(259.3199996948242 712) rotate(0 24.68000030517578 12.5)"><text x="24.68000030517578" y="0" font-family="Virgil, Segoe UI Emoji" font-size="20px" fill="#1e1e1e" text-anchor="middle" style="white-space: pre;" direction="ltr" dominant-baseline="text-before-edge">data</text></g><g stroke-linecap="round" transform="translate(368 686.5) rotate(0 14 17.5)"><path d="M7 0 C13.45 1.09, 17.55 0.74, 21 0 M7 0 C10.22 -0.31, 13.13 -0.39, 21 0 M21 0 C24.56 -0.01, 26.92 3.58, 28 7 M21 0 C23.51 1.33, 29.14 2.58, 28 7 M28 7 C26.67 10.65, 29.61 17.06, 28 28 M28 7 C28.16 11.43, 28.88 16.25, 28 28 M28 28 C29.68 30.88, 27.43 35.04, 21 35 M28 28 C26 31.59, 25.31 35.37, 21 35 M21 35 C14.88 35.06, 12.26 34.94, 7 35 M21 35 C17.03 34.63, 14.3 35.28, 7 35 M7 35 C0.8 34.71, 0.39 30.97, 0 28 M7 35 C1.42 35.27, -0.83 32.96, 0 28 M0 28 C-0.43 22.57, 0.75 12.43, 0 7 M0 28 C-0.01 22.97, -0.55 16.87, 0 7 M0 7 C0.86 2.32, 4.21 -1.67, 7 0 M0 7 C-0.59 3.27, 1.96 -1.08, 7 0" stroke="#1e1e1e" stroke-width="2" fill="none"></path></g><g transform="translate(374.1199998855591 691.5) rotate(0 7.880000114440918 12.5)"><text x="7.880000114440918" y="0" font-family="Virgil, Segoe UI Emoji" font-size="20px" fill="#1e1e1e" text-anchor="middle" style="white-space: pre;" direction="ltr" dominant-baseline="text-before-edge">id</text></g><g stroke-linecap="round" transform="translate(396 687.5) rotate(0 41 42)"><path d="M20.5 0 C34.26 -1.94, 51.67 0.26, 61.5 0 M20.5 0 C30.59 0.21, 41.24 0.84, 61.5 0 M61.5 0 C73.29 1.16, 82.99 7.05, 82 20.5 M61.5 0 C73.83 1.99, 82.1 5.1, 82 20.5 M82 20.5 C80.66 32.02, 80.9 40.12, 82 63.5 M82 20.5 C83.14 31.92, 83.18 45.15, 82 63.5 M82 63.5 C80.26 76.23, 74.86 84.32, 61.5 84 M82 63.5 C82.92 76.22, 73.91 81.77, 61.5 84 M61.5 84 C47.7 85.22, 35.18 82.45, 20.5 84 M61.5 84 C50.21 84.05, 40.65 83.35, 20.5 84 M20.5 84 C6.04 84.24, -0.72 77.42, 0 63.5 M20.5 84 C7.55 85.13, 1.46 76.79, 0 63.5 M0 63.5 C-1.13 48.88, -0.74 31.45, 0 20.5 M0 63.5 C0.59 49.4, 1.1 34.47, 0 20.5 M0 20.5 C-0.51 7.65, 6.51 -0.94, 20.5 0 M0 20.5 C-0.52 7.01, 6.42 -0.73, 20.5 0" stroke="#1e1e1e" stroke-width="2" fill="none"></path></g><g transform="translate(412.3199996948242 717) rotate(0 24.68000030517578 12.5)"><text x="24.68000030517578" y="0" font-family="Virgil, Segoe UI Emoji" font-size="20px" fill="#1e1e1e" text-anchor="middle" style="white-space: pre;" direction="ltr" dominant-baseline="text-before-edge">data</text></g><g stroke-linecap="round"><g stroke-opacity="0.5" fill-opacity="0.5" transform="translate(205 323) rotate(0 -16.919676115499442 177.5)"><path d="M-0.92 0.79 C-9.36 22.2, -52.3 68.51, -49.47 127.72 C-46.64 186.93, 5.45 318.23, 16.04 356.08" stroke="#1e1e1e" stroke-width="2.5" fill="none" stroke-dasharray="1.5 8"></path></g><g stroke-opacity="0.5" fill-opacity="0.5" transform="translate(205 323) rotate(0 -16.919676115499442 177.5)"><path d="M0.49 336.5 C7.91 343.65, 12.33 353.72, 16.04 356.08" stroke="#1e1e1e" stroke-width="2.5" fill="none" stroke-dasharray="1.5 6"></path></g><g stroke-opacity="0.5" fill-opacity="0.5" transform="translate(205 323) rotate(0 -16.919676115499442 177.5)"><path d="M16.72 331.08 C17.62 340.28, 15.56 352.51, 16.04 356.08" stroke="#1e1e1e" stroke-width="2.5" fill="none" stroke-dasharray="1.5 6"></path></g></g><mask></mask><g stroke-linecap="round"><g stroke-opacity="0.5" fill-opacity="0.5" transform="translate(237 327) rotate(0 -4.370342041733352 123)"><path d="M0.66 1.12 C-1.97 11.34, -17.62 20.11, -16.71 61 C-15.79 101.89, 2.3 215.46, 6.16 246.46" stroke="#1e1e1e" stroke-width="2.5" fill="none" stroke-dasharray="1.5 8"></path></g><g stroke-opacity="0.5" fill-opacity="0.5" transform="translate(237 327) rotate(0 -4.370342041733352 123)"><path d="M-5.58 224.39 C-1.17 228.05, -0.42 232.31, 6.16 246.46" stroke="#1e1e1e" stroke-width="2.5" fill="none" stroke-dasharray="1.5 6"></path></g><g stroke-opacity="0.5" fill-opacity="0.5" transform="translate(237 327) rotate(0 -4.370342041733352 123)"><path d="M11.36 222.01 C11.99 226.3, 8.98 231.08, 6.16 246.46" stroke="#1e1e1e" stroke-width="2.5" fill="none" stroke-dasharray="1.5 6"></path></g></g><mask></mask><g stroke-linecap="round"><g stroke-opacity="0.5" fill-opacity="0.5" transform="translate(266 324) rotate(0 52.56760952052434 178)"><path d="M0.88 0.92 C6.44 11.79, 18.83 45.16, 32.45 66.07 C46.07 86.97, 70.44 78.12, 82.59 126.34 C94.73 174.56, 101.59 316.93, 105.34 355.38" stroke="#1e1e1e" stroke-width="2.5" fill="none" stroke-dasharray="1.5 8"></path></g><g stroke-opacity="0.5" fill-opacity="0.5" transform="translate(266 324) rotate(0 52.56760952052434 178)"><path d="M95.06 332.59 C99.07 338.36, 98.27 342.03, 105.34 355.38" stroke="#1e1e1e" stroke-width="2.5" fill="none" stroke-dasharray="1.5 6"></path></g><g stroke-opacity="0.5" fill-opacity="0.5" transform="translate(266 324) rotate(0 52.56760952052434 178)"><path d="M112.12 331.32 C112.32 337.5, 107.7 341.45, 105.34 355.38" stroke="#1e1e1e" stroke-width="2.5" fill="none" stroke-dasharray="1.5 6"></path></g></g><mask></mask><g stroke-linecap="round"><g stroke-opacity="0.5" fill-opacity="0.5" transform="translate(296 324) rotate(0 40.73360603811835 130)"><path d="M-0.94 -0.4 C11.91 13.97, 62.13 42.5, 76.01 85.89 C89.89 129.28, 81.59 231.11, 82.35 259.94" stroke="#1e1e1e" stroke-width="2.5" fill="none" stroke-dasharray="1.5 8"></path></g><g stroke-opacity="0.5" fill-opacity="0.5" transform="translate(296 324) rotate(0 40.73360603811835 130)"><path d="M74.31 236.26 C75.25 241.28, 75.74 247.68, 82.35 259.94" stroke="#1e1e1e" stroke-width="2.5" fill="none" stroke-dasharray="1.5 6"></path></g><g stroke-opacity="0.5" fill-opacity="0.5" transform="translate(296 324) rotate(0 40.73360603811835 130)"><path d="M91.41 236.64 C88.78 241.44, 85.7 247.76, 82.35 259.94" stroke="#1e1e1e" stroke-width="2.5" fill="none" stroke-dasharray="1.5 6"></path></g></g><mask></mask><g stroke-linecap="round" transform="translate(752.5 199) rotate(0 104 55)"><path d="M117.26 0.77 C130.46 0.81, 145.62 4.27, 157.62 8.27 C169.61 12.27, 181.02 18.78, 189.24 24.76 C197.46 30.75, 204.36 37.03, 206.93 44.19 C209.51 51.34, 208.29 60.46, 204.71 67.7 C201.13 74.95, 194.07 81.83, 185.46 87.65 C176.84 93.47, 165.12 99, 153.03 102.62 C140.93 106.23, 126.84 108.52, 112.87 109.34 C98.9 110.17, 82.53 109.86, 69.2 107.55 C55.87 105.23, 43.03 100.71, 32.89 95.45 C22.75 90.2, 13.9 82.94, 8.36 76.04 C2.82 69.13, -0.6 61.42, -0.37 54.02 C-0.14 46.62, 3.74 38.43, 9.75 31.65 C15.77 24.87, 24.86 18.39, 35.73 13.36 C46.6 8.32, 59.66 3.36, 74.97 1.45 C90.27 -0.45, 117.23 1.61, 127.56 1.93 C137.88 2.25, 137.1 2.44, 136.92 3.38 M96.11 0.08 C109.16 -1.29, 123.58 0.92, 136.8 3.52 C150.03 6.12, 164.92 10.78, 175.46 15.68 C185.99 20.57, 194.66 26.18, 200.01 32.89 C205.35 39.61, 207.61 48.54, 207.51 55.98 C207.42 63.41, 205.37 70.55, 199.44 77.5 C193.5 84.46, 182.83 92.47, 171.9 97.7 C160.98 102.93, 147.46 107.13, 133.9 108.88 C120.33 110.62, 104.28 109.22, 90.53 108.18 C76.78 107.15, 63.26 106.43, 51.39 102.67 C39.52 98.91, 27.61 91.9, 19.31 85.61 C11.02 79.33, 4.47 72.21, 1.62 64.98 C-1.22 57.75, -1.1 49.32, 2.25 42.22 C5.6 35.12, 13.23 28.14, 21.72 22.37 C30.21 16.6, 40.89 11.11, 53.19 7.61 C65.5 4.11, 88.48 2.57, 95.56 1.35 C102.64 0.13, 95.48 -0.23, 95.67 0.3" stroke="#1e1e1e" stroke-width="2" fill="none"></path></g><g stroke-linecap="round" transform="translate(952.5 239) rotate(0 14 14)"><path d="M7 0 C11.57 0.62, 12.98 0.36, 21 0 M7 0 C10.57 0.53, 12.34 -0.18, 21 0 M21 0 C25.21 -1.89, 26.2 1.44, 28 7 M21 0 C23.92 2.04, 26.86 2.52, 28 7 M28 7 C28.8 12.33, 27.51 18.23, 28 21 M28 7 C28.22 10.8, 27.51 13.77, 28 21 M28 21 C28.88 24.54, 24.24 29.52, 21 28 M28 21 C29.73 25.28, 25.14 28.09, 21 28 M21 28 C16.41 28.17, 11.69 28.03, 7 28 M21 28 C18.12 27.58, 13.96 28.5, 7 28 M7 28 C2.02 29.65, -0.68 23.81, 0 21 M7 28 C4.18 28.93, 1.03 24.43, 0 21 M0 21 C-0.21 17.58, 0.59 12.44, 0 7 M0 21 C0.09 15.6, 0.25 10.6, 0 7 M0 7 C0.73 3.25, 3.03 -1.81, 7 0 M0 7 C1.91 1.22, 4.18 -1.06, 7 0" stroke="#1e1e1e" stroke-width="2" fill="none"></path></g><g stroke-linecap="round" transform="translate(980.5 239) rotate(0 14 14)"><path d="M7 0 C10.89 0.33, 14.92 0.1, 21 0 M7 0 C9.79 -0.35, 13.65 -0.75, 21 0 M21 0 C23.87 -0.89, 26.48 4.11, 28 7 M21 0 C24.53 0.19, 29.69 3.73, 28 7 M28 7 C27.5 12.84, 27.44 17.71, 28 21 M28 7 C27.48 9.63, 28.34 12.6, 28 21 M28 21 C26.58 27.18, 27.17 27.66, 21 28 M28 21 C27.47 25.76, 27.03 27.82, 21 28 M21 28 C18.79 28.18, 14.38 27.6, 7 28 M21 28 C16.88 28.43, 12.74 28.49, 7 28 M7 28 C1.65 26.15, 1.61 26.48, 0 21 M7 28 C3.36 26.76, -0.36 25.11, 0 21 M0 21 C0.58 16.65, 0.76 13.81, 0 7 M0 21 C0.26 15.19, 0.23 10.77, 0 7 M0 7 C0.7 0.52, 4 -0.97, 7 0 M0 7 C1.84 1.27, 0.29 1.27, 7 0" stroke="#1e1e1e" stroke-width="2" fill="none"></path></g><g stroke-linecap="round" transform="translate(1008.5 239) rotate(0 14 14)"><path d="M7 0 C10.63 0.13, 15.92 1.14, 21 0 M7 0 C11.94 -0.61, 16.57 -0.26, 21 0 M21 0 C24.15 1.77, 27.01 2.5, 28 7 M21 0 C27.35 1.39, 29.43 3.5, 28 7 M28 7 C27.31 11.88, 26.74 15.94, 28 21 M28 7 C28.2 11.28, 27.39 16.88, 28 21 M28 21 C29.5 25.33, 25.2 28.08, 21 28 M28 21 C29.36 25.48, 23.63 28.72, 21 28 M21 28 C15.79 27.58, 11.88 29.23, 7 28 M21 28 C17.51 28.68, 14.01 27.45, 7 28 M7 28 C3.94 28.81, 0.89 24.59, 0 21 M7 28 C1.98 27.44, -0.74 25.27, 0 21 M0 21 C0.68 16.55, 1.02 11.73, 0 7 M0 21 C0.2 18.05, 0.19 13.82, 0 7 M0 7 C1.66 1.37, 3.94 -0.92, 7 0 M0 7 C-2.04 3.61, 4.24 1.62, 7 0" stroke="#1e1e1e" stroke-width="2" fill="none"></path></g><g stroke-linecap="round" transform="translate(1036.5 239) rotate(0 14 14)"><path d="M7 0 C10.8 1.16, 17.1 -1.25, 21 0 M7 0 C10.05 -0.18, 13.83 0.75, 21 0 M21 0 C24.68 0.17, 29.47 3.55, 28 7 M21 0 C27.1 1.17, 28.17 1.39, 28 7 M28 7 C26.73 12.31, 28.41 15.85, 28 21 M28 7 C27.56 11, 28.59 13.83, 28 21 M28 21 C27.54 25.75, 26.85 27.84, 21 28 M28 21 C25.96 26.39, 26.16 29.22, 21 28 M21 28 C16.52 29.18, 11.48 27.85, 7 28 M21 28 C15.54 27.47, 11.13 28.4, 7 28 M7 28 C3.23 26.92, -0.31 25.18, 0 21 M7 28 C1.6 27.6, 0.92 26.58, 0 21 M0 21 C1 17.64, -1 14.36, 0 7 M0 21 C0.19 17.23, 0.53 14.39, 0 7 M0 7 C1.6 1.41, 0.56 1.11, 7 0 M0 7 C1.91 3.96, 3.64 -2.22, 7 0" stroke="#1e1e1e" stroke-width="2" fill="none"></path></g><g stroke-linecap="round" transform="translate(647.5 240) rotate(0 14 14)"><path d="M7 0 C12.27 -1.35, 15.21 -0.44, 21 0 M7 0 C9.34 0.68, 12.4 0.12, 21 0 M21 0 C27.13 1.21, 29.24 3.35, 28 7 M21 0 C25.84 -0.94, 29.27 1.29, 28 7 M28 7 C28.35 10.67, 27.15 17.16, 28 21 M28 7 C28.43 10.29, 27.74 13.85, 28 21 M28 21 C29.18 25.51, 23.89 28.63, 21 28 M28 21 C28.49 26.89, 25.91 26.84, 21 28 M21 28 C16.41 28.02, 14.49 27.9, 7 28 M21 28 C16.21 28.15, 10.61 27.49, 7 28 M7 28 C2.02 27.51, -0.64 25.32, 0 21 M7 28 C3.25 28.91, -0.98 26.88, 0 21 M0 21 C-1.04 17.05, -1.17 12.48, 0 7 M0 21 C0.53 15.82, 0.51 10.99, 0 7 M0 7 C-1.77 3.44, 4 1.41, 7 0 M0 7 C1.31 0.12, 4.25 1.49, 7 0" stroke="#1e1e1e" stroke-width="2" fill="none"></path></g><g stroke-linecap="round" transform="translate(675.5 240) rotate(0 14 14)"><path d="M7 0 C11.86 -0.2, 16.43 -1.14, 21 0 M7 0 C10.23 -0.07, 14.67 0.3, 21 0 M21 0 C26.91 1.02, 28.15 1.51, 28 7 M21 0 C26.94 -1.04, 28.94 0.36, 28 7 M28 7 C27.32 12.15, 27.26 15.07, 28 21 M28 7 C27.94 12.29, 28.52 17.47, 28 21 M28 21 C26.23 26.3, 26.09 29.06, 21 28 M28 21 C28.25 24.5, 24.95 27.79, 21 28 M21 28 C16.6 27.77, 11.32 27.51, 7 28 M21 28 C18.41 27.68, 15.09 27.89, 7 28 M7 28 C1.69 27.65, 0.8 26.46, 0 21 M7 28 C1.35 29.21, 0.52 27.44, 0 21 M0 21 C-0.97 17.06, 0.74 12.59, 0 7 M0 21 C0.44 17.75, -0.74 15.53, 0 7 M0 7 C1.66 3.74, 3.47 -1.93, 7 0 M0 7 C1.92 3.82, 0.91 1.96, 7 0" stroke="#1e1e1e" stroke-width="2" fill="none"></path></g><g stroke-linecap="round" transform="translate(703.5 240) rotate(0 14 14)"><path d="M7 0 C8.64 -1.23, 12.31 -1.03, 21 0 M7 0 C12.96 0.41, 18.32 0.34, 21 0 M21 0 C25.82 -0.82, 29.11 1.43, 28 7 M21 0 C26.61 -1.98, 28.55 3.11, 28 7 M28 7 C27.14 9.1, 28.99 14.25, 28 21 M28 7 C28.38 10.91, 27.35 15.15, 28 21 M28 21 C28.43 26.73, 25.88 26.99, 21 28 M28 21 C27.29 25.46, 27.67 26.65, 21 28 M21 28 C18.05 27.5, 11.51 29.1, 7 28 M21 28 C16.12 27.75, 11.24 27.8, 7 28 M7 28 C3.13 28.79, -0.85 26.72, 0 21 M7 28 C2.85 29.77, 0.41 24.14, 0 21 M0 21 C0.75 16.72, -1.16 12.63, 0 7 M0 21 C-0.73 17.86, 0.47 14.45, 0 7 M0 7 C1.14 0.4, 4 1.29, 7 0 M0 7 C-1.42 4.29, 1.27 0.77, 7 0" stroke="#1e1e1e" stroke-width="2" fill="none"></path></g><g stroke-linecap="round" transform="translate(731.5 240) rotate(0 14 14)"><path d="M7 0 C10.26 -0.94, 16 -0.57, 21 0 M7 0 C11.75 0.27, 15.68 -0.37, 21 0 M21 0 C26.77 -0.9, 28.82 0.61, 28 7 M21 0 C26.21 0.78, 26.19 1.14, 28 7 M28 7 C28.98 12.87, 27.68 16.31, 28 21 M28 7 C27.46 11.48, 28.23 15.88, 28 21 M28 21 C28.22 24.66, 25.05 27.82, 21 28 M28 21 C30 24.32, 25.5 29.67, 21 28 M21 28 C15.72 29.08, 13.6 28.58, 7 28 M21 28 C17.33 27.84, 14.39 28.24, 7 28 M7 28 C1.48 29.05, 0.45 27.21, 0 21 M7 28 C2.74 26.47, 0.93 23.92, 0 21 M0 21 C-1.33 17.46, -0.74 12.71, 0 7 M0 21 C0.71 17.94, 0.52 13.22, 0 7 M0 7 C1.67 3.63, 1.09 1.7, 7 0 M0 7 C-1.06 3.1, 1.34 -1.59, 7 0" stroke="#1e1e1e" stroke-width="2" fill="none"></path></g><g stroke-linecap="round" transform="translate(691.5 354) rotate(0 104 55)"><path d="M83.94 0.3 C96.86 -1.85, 114.03 -0.65, 127.58 1.2 C141.13 3.05, 154.18 6.8, 165.25 11.41 C176.32 16.01, 187.02 22.46, 194 28.83 C200.98 35.2, 205.73 42.29, 207.14 49.63 C208.54 56.96, 206.81 65.74, 202.41 72.84 C198.01 79.95, 190.24 86.86, 180.74 92.25 C171.25 97.64, 158.25 102.18, 145.44 105.18 C132.63 108.19, 118.15 110.13, 103.86 110.26 C89.58 110.38, 72.67 109, 59.72 105.93 C46.76 102.86, 35.47 97.7, 26.14 91.82 C16.82 85.95, 8.12 77.79, 3.77 70.68 C-0.58 63.57, -1.64 56.38, 0.06 49.15 C1.76 41.93, 6.61 33.99, 13.98 27.34 C21.34 20.7, 32.29 13.81, 44.25 9.29 C56.21 4.76, 78.14 1.61, 85.73 0.19 C93.32 -1.23, 89.52 -0.22, 89.79 0.76 M91.08 1.02 C103.99 -0.85, 118.97 1.13, 132.18 3.09 C145.4 5.04, 159.5 8.29, 170.36 12.73 C181.21 17.16, 190.87 22.74, 197.32 29.67 C203.78 36.61, 208.73 46.72, 209.1 54.32 C209.47 61.91, 205.08 68.56, 199.53 75.25 C193.98 81.93, 185.9 89.32, 175.83 94.44 C165.75 99.56, 152.42 103.54, 139.07 105.96 C125.72 108.39, 109.69 109.29, 95.72 109.02 C81.75 108.75, 67.35 107.72, 55.25 104.35 C43.14 100.99, 31.6 94.68, 23.08 88.85 C14.57 83.01, 7.65 76.7, 4.13 69.34 C0.61 61.99, -0.18 52.07, 1.98 44.73 C4.14 37.4, 9.1 31.33, 17.12 25.33 C25.14 19.33, 38.15 13.09, 50.09 8.73 C62.03 4.37, 82.01 0.47, 88.76 -0.82 C95.5 -2.11, 90.37 -0.37, 90.58 1" stroke="#1e1e1e" stroke-width="2" fill="none"></path></g><g stroke-linecap="round" transform="translate(891.5 394) rotate(0 14 14)"><path d="M7 0 C11.4 -0.74, 15.79 -1.04, 21 0 M7 0 C12.79 -0.33, 18.38 -0.17, 21 0 M21 0 C25.24 -0.3, 28.57 2.75, 28 7 M21 0 C25.7 0.38, 27.32 4.59, 28 7 M28 7 C28.11 12.21, 26.49 15.07, 28 21 M28 7 C28.32 10.64, 27.46 13.36, 28 21 M28 21 C26.74 27.14, 23.83 26.96, 21 28 M28 21 C27.64 25.04, 25.63 30.09, 21 28 M21 28 C16.6 27.13, 10.26 27.59, 7 28 M21 28 C17.8 27.82, 15.23 27.96, 7 28 M7 28 C2.24 26.93, -0.76 24.56, 0 21 M7 28 C3.06 29.39, 2.02 25.93, 0 21 M0 21 C-0.57 14.87, 1.08 11.22, 0 7 M0 21 C0.27 16.05, -0.52 12.32, 0 7 M0 7 C-0.02 1, 4.23 -1.1, 7 0 M0 7 C0.1 3.96, 3.55 1.46, 7 0" stroke="#1e1e1e" stroke-width="2" fill="none"></path></g><g stroke-linecap="round" transform="translate(919.5 394) rotate(0 14 14)"><path d="M7 0 C11.3 -1.01, 15.49 -0.1, 21 0 M7 0 C10.67 -0.2, 13.05 -0.02, 21 0 M21 0 C26.23 0.41, 28.03 2.66, 28 7 M21 0 C24.98 2.26, 28.59 0.12, 28 7 M28 7 C26.65 11.45, 27.14 18.69, 28 21 M28 7 C27.44 10.21, 27.61 14.47, 28 21 M28 21 C26.16 24.63, 25.35 27.46, 21 28 M28 21 C27.97 27.76, 27.36 28.79, 21 28 M21 28 C17.38 27.6, 12.98 28.99, 7 28 M21 28 C15.83 27.81, 10.7 27.57, 7 28 M7 28 C1.57 26.89, 0.63 26.87, 0 21 M7 28 C4.35 28.27, 1.76 27.62, 0 21 M0 21 C1.25 17.27, 0.51 10.87, 0 7 M0 21 C-0.67 18.69, -0.04 14.61, 0 7 M0 7 C1.9 1.23, 2.42 1.41, 7 0 M0 7 C1.22 3.79, 4.62 -1.78, 7 0" stroke="#1e1e1e" stroke-width="2" fill="none"></path></g><g stroke-linecap="round" transform="translate(947.5 394) rotate(0 14 14)"><path d="M7 0 C11.61 -0.07, 12.71 0.88, 21 0 M7 0 C10.18 -0.05, 13.86 0.2, 21 0 M21 0 C25.69 0.33, 27.4 4.29, 28 7 M21 0 C26.26 -2.21, 30.14 2.73, 28 7 M28 7 C26.97 12.53, 27.14 17.19, 28 21 M28 7 C27.44 12.38, 27.23 16.36, 28 21 M28 21 C27.69 25.13, 25.64 29.82, 21 28 M28 21 C29.7 26.45, 24.26 29.36, 21 28 M21 28 C16.25 29.04, 15.1 27.29, 7 28 M21 28 C17.31 27.6, 13.41 27.59, 7 28 M7 28 C2.96 29.2, 1.75 25.9, 0 21 M7 28 C4.09 29.95, 0.49 24.93, 0 21 M0 21 C0.35 16.52, -1.36 14.62, 0 7 M0 21 C0.12 16.89, 0.79 13.33, 0 7 M0 7 C0.09 3.75, 3.39 1.27, 7 0 M0 7 C2.28 0.55, 3.54 0.64, 7 0" stroke="#1e1e1e" stroke-width="2" fill="none"></path></g><g stroke-linecap="round" transform="translate(975.5 394) rotate(0 14 14)"><path d="M7 0 C9.01 0.79, 12.34 1.16, 21 0 M7 0 C10.83 0.17, 14.28 0.14, 21 0 M21 0 C25.07 1.96, 28.52 0.41, 28 7 M21 0 C27.81 0.4, 29.06 0.08, 28 7 M28 7 C27.19 10.64, 28.57 12.07, 28 21 M28 7 C27.27 10.31, 27.8 14.16, 28 21 M28 21 C27.97 27.48, 27.14 28.68, 21 28 M28 21 C26.59 27.03, 24.38 27.55, 21 28 M21 28 C18.06 27.43, 12.71 28.02, 7 28 M21 28 C16.8 27.54, 13.35 28.35, 7 28 M7 28 C4.09 28.23, 1.53 27.36, 0 21 M7 28 C2.82 27.26, -1.41 27.64, 0 21 M0 21 C-1.28 16.34, -0.6 9.8, 0 7 M0 21 C0.67 15.11, 0.03 10.48, 0 7 M0 7 C1.06 3.6, 4.32 -1.55, 7 0 M0 7 C1.21 2.97, 4.32 -0.62, 7 0" stroke="#1e1e1e" stroke-width="2" fill="none"></path></g><g stroke-linecap="round" transform="translate(586.5 395) rotate(0 14 14)"><path d="M7 0 C10.15 1.07, 14.48 -0.38, 21 0 M7 0 C11 0.09, 14.77 0.66, 21 0 M21 0 C26.18 -1.92, 29.86 2.68, 28 7 M21 0 C26.73 -2.25, 26.27 0.87, 28 7 M28 7 C28.59 10.66, 27.4 15.89, 28 21 M28 7 C27.76 12.05, 27.86 18.11, 28 21 M28 21 C29.47 26.35, 24.44 29.18, 21 28 M28 21 C26.72 25.21, 25.13 25.81, 21 28 M21 28 C15.19 27.85, 10.19 27.86, 7 28 M21 28 C17.77 28.34, 14.71 28, 7 28 M7 28 C3.86 29.7, 0.43 25.03, 0 21 M7 28 C0.93 29.97, 1.26 26.44, 0 21 M0 21 C-0.43 16.67, 1.43 14.86, 0 7 M0 21 C-0.1 18.23, 0.24 14.91, 0 7 M0 7 C1.99 0.79, 3.38 0.56, 7 0 M0 7 C1.98 1.71, 1.3 -2.28, 7 0" stroke="#1e1e1e" stroke-width="2" fill="none"></path></g><g stroke-linecap="round" transform="translate(614.5 395) rotate(0 14 14)"><path d="M7 0 C11.41 -0.41, 16.74 0.28, 21 0 M7 0 C11.28 0.66, 16.16 -0.7, 21 0 M21 0 C27.53 0.34, 28.92 0.37, 28 7 M21 0 C23.94 -1.46, 29.12 1.14, 28 7 M28 7 C27.54 10.81, 29.1 15.1, 28 21 M28 7 C27.97 11.11, 28.49 14.19, 28 21 M28 21 C26.78 26.85, 24.55 27.61, 21 28 M28 21 C27.46 23.47, 27.43 29.53, 21 28 M21 28 C17.21 27.92, 13.21 27.46, 7 28 M21 28 C18.19 28.17, 14.68 28.68, 7 28 M7 28 C2.76 27.36, -1.22 27.38, 0 21 M7 28 C3.59 28.77, -1.87 23.63, 0 21 M0 21 C1.36 16.48, -0.88 13.32, 0 7 M0 21 C0.36 18.01, 0.69 13.6, 0 7 M0 7 C1.05 2.89, 4.06 -0.54, 7 0 M0 7 C-1.03 0.05, 2.57 -1.43, 7 0" stroke="#1e1e1e" stroke-width="2" fill="none"></path></g><g stroke-linecap="round" transform="translate(642.5 395) rotate(0 14 14)"><path d="M7 0 C12.14 0.43, 17.98 0.05, 21 0 M7 0 C11.61 -0.81, 16.51 -0.02, 21 0 M21 0 C26.59 -1.96, 26.49 1.06, 28 7 M21 0 C26.79 -1.19, 28.81 3.42, 28 7 M28 7 C28.98 8.69, 27.22 12.73, 28 21 M28 7 C28.51 11.06, 27.57 15.06, 28 21 M28 21 C26.88 25.27, 25.2 26.09, 21 28 M28 21 C29.76 27.2, 24.55 27.11, 21 28 M21 28 C16.14 27.46, 12 28.43, 7 28 M21 28 C16.49 28.61, 11.06 27.79, 7 28 M7 28 C1.11 29.72, 1.09 26.34, 0 21 M7 28 C0.47 25.97, 0.5 24.75, 0 21 M0 21 C-1.06 19.4, -0.9 15.2, 0 7 M0 21 C0.62 15.27, 0.29 10.82, 0 7 M0 7 C1.73 1.79, 1.44 -1.98, 7 0 M0 7 C0.24 0.91, 0.37 -1.66, 7 0" stroke="#1e1e1e" stroke-width="2" fill="none"></path></g><g stroke-linecap="round" transform="translate(670.5 395) rotate(0 14 14)"><path d="M7 0 C11.19 -0.02, 15.03 -0.46, 21 0 M7 0 C13.22 0.25, 18.47 -0.55, 21 0 M21 0 C24.16 -1.27, 28.98 1.3, 28 7 M21 0 C26.48 1.09, 25.99 1.47, 28 7 M28 7 C27.38 10.1, 27.72 13.62, 28 21 M28 7 C27.68 12.89, 27.71 17.81, 28 21 M28 21 C27.53 23.76, 27.2 29.33, 21 28 M28 21 C26.89 24.78, 25.53 27.56, 21 28 M21 28 C16.09 28.39, 13.58 29.17, 7 28 M21 28 C16.79 27.89, 11.85 28.72, 7 28 M7 28 C3.43 28.67, -1.62 23.9, 0 21 M7 28 C2.83 27.09, -2.09 27.82, 0 21 M0 21 C-0.68 16.88, 1.08 13.37, 0 7 M0 21 C0.23 16.11, 0.46 10.64, 0 7 M0 7 C-0.9 0.35, 2.54 -1.24, 7 0 M0 7 C-1.96 0.67, 3.68 1.53, 7 0" stroke="#1e1e1e" stroke-width="2" fill="none"></path></g><g stroke-opacity="0.5" fill-opacity="0.5" stroke-linecap="round" transform="translate(76 10) rotate(0 552 266)"><path d="M621.84 1.73 C654.76 -0.8, 689.86 7.21, 722.26 12.27 C754.65 17.32, 786.52 24.01, 816.22 32.06 C845.92 40.1, 874.23 50.18, 900.47 60.56 C926.71 70.94, 951.77 82.22, 973.65 94.34 C995.53 106.46, 1014.93 119.04, 1031.73 133.26 C1048.53 147.47, 1063.28 164.1, 1074.44 179.64 C1085.6 195.19, 1093.93 210.66, 1098.67 226.52 C1103.42 242.39, 1104.26 258.65, 1102.9 274.82 C1101.53 290.99, 1097.62 307.5, 1090.5 323.54 C1083.38 339.58, 1073.39 356.1, 1060.17 371.04 C1046.96 385.98, 1030.26 399.59, 1011.2 413.19 C992.14 426.78, 969.61 440.65, 945.81 452.59 C922.01 464.53, 896.06 475.66, 868.42 484.83 C840.77 493.99, 810.83 500.91, 779.93 507.6 C749.02 514.28, 715.93 520.81, 682.97 524.95 C650.01 529.1, 615.77 531.73, 582.16 532.48 C548.55 533.23, 514.73 531.53, 481.31 529.46 C447.89 527.38, 413.69 525.04, 381.65 520.02 C349.61 515.01, 318.63 507.23, 289.09 499.35 C259.55 491.48, 230.84 483.01, 204.41 472.77 C177.98 462.52, 152.47 450.39, 130.51 437.9 C108.56 425.4, 89.47 411.93, 72.68 397.79 C55.9 383.64, 40.8 368.52, 29.81 353.03 C18.81 337.54, 11.44 320.81, 6.69 304.85 C1.94 288.88, 0.24 273.37, 1.33 257.24 C2.42 241.1, 6 224.07, 13.24 208.04 C20.48 192.01, 31.4 176.2, 44.77 161.04 C58.15 145.89, 74.7 130.57, 93.5 117.09 C112.3 103.62, 133.8 91.61, 157.58 80.19 C181.35 68.78, 208.29 58.14, 236.15 48.6 C264.02 39.06, 294.16 29.82, 324.77 22.95 C355.39 16.07, 387.29 11.25, 419.84 7.36 C452.38 3.47, 482.54 0.2, 520.02 -0.41 C557.5 -1.01, 620.77 1.91, 644.74 3.73 C668.7 5.54, 665.46 6.16, 663.8 10.46 M794.26 28.01 C826.86 30.81, 852.72 42.65, 879.82 52.32 C906.93 61.99, 933.53 74.31, 956.87 86.03 C980.22 97.74, 1001.98 108.81, 1019.87 122.61 C1037.77 136.41, 1052.11 153.39, 1064.22 168.83 C1076.34 184.27, 1085.84 199.66, 1092.55 215.25 C1099.27 230.84, 1104.27 246.22, 1104.52 262.37 C1104.78 278.52, 1099.97 295.7, 1094.08 312.14 C1088.2 328.59, 1080.71 345.8, 1069.23 361.07 C1057.74 376.33, 1042.7 389.93, 1025.2 403.75 C1007.7 417.58, 986.82 431.74, 964.24 444.01 C941.65 456.28, 916.77 467.68, 889.69 477.38 C862.62 487.09, 831.78 495.09, 801.76 502.25 C771.75 509.41, 741.73 515.75, 709.59 520.34 C677.45 524.93, 642.81 527.91, 608.91 529.81 C575.01 531.72, 540.13 532.85, 506.19 531.77 C472.24 530.68, 437.88 527.92, 405.23 523.29 C372.58 518.65, 340.37 511.02, 310.28 503.95 C280.19 496.87, 251.74 490.16, 224.69 480.83 C197.64 471.51, 171 459.89, 147.97 448.01 C124.94 436.12, 104.72 423.38, 86.48 409.53 C68.25 395.68, 51.12 380.32, 38.57 364.91 C26.02 349.5, 17.76 332.93, 11.19 317.1 C4.63 301.27, -0.27 285.93, -0.84 269.93 C-1.41 253.93, 1.79 237.48, 7.78 221.1 C13.77 204.71, 23.13 187.17, 35.11 171.61 C47.1 156.06, 62.08 141.44, 79.7 127.76 C97.33 114.09, 118.4 101.57, 140.85 89.57 C163.3 77.56, 187.54 65.64, 214.4 55.74 C241.26 45.84, 271.91 37.48, 302.02 30.17 C332.13 22.86, 362.75 16.66, 395.06 11.89 C427.37 7.12, 461.94 3.46, 495.87 1.56 C529.8 -0.35, 564.83 -0.61, 598.64 0.47 C632.45 1.55, 666.08 3.64, 698.74 8.04 C731.39 12.43, 779.87 23.1, 794.59 26.83 C809.32 30.57, 791.36 26.66, 787.08 30.44" stroke="#2f9e44" stroke-width="2" fill="none"></path></g><g stroke-opacity="0.5" fill-opacity="0.5" stroke-linecap="round" transform="translate(399 96) rotate(0 52 10.5)"><path d="M5.25 0 C32.32 1.1, 60.31 2.27, 98.75 0 M5.25 0 C38.15 0.76, 69 0.63, 98.75 0 M98.75 0 C102.1 0.87, 102.15 2.71, 104 5.25 M98.75 0 C100.07 1.67, 105.48 2.31, 104 5.25 M104 5.25 C104.63 7.28, 104.43 9.99, 104 15.75 M104 5.25 C104.38 8.93, 104.29 12.88, 104 15.75 M104 15.75 C103.78 20.25, 103.3 19.39, 98.75 21 M104 15.75 C106.17 20.08, 103.54 21.94, 98.75 21 M98.75 21 C80.63 22.54, 60.01 22.03, 5.25 21 M98.75 21 C67.47 20.13, 36.48 20.41, 5.25 21 M5.25 21 C3.32 22.27, 0.14 19, 0 15.75 M5.25 21 C1.77 19.29, -1.73 18, 0 15.75 M0 15.75 C0.64 13.6, -0.23 9.55, 0 5.25 M0 15.75 C-0.27 13.44, 0.01 10.44, 0 5.25 M0 5.25 C1.8 3.12, 3.26 1.4, 5.25 0 M0 5.25 C-0.94 3.85, 3.76 0.37, 5.25 0" stroke="#2f9e44" stroke-width="2" fill="none"></path></g><g stroke-opacity="0.5" fill-opacity="0.5" stroke-linecap="round" transform="translate(399 120.5) rotate(0 52 10.5)"><path d="M5.25 0 C35.43 -1.56, 65.34 0.52, 98.75 0 M5.25 0 C28.8 0.71, 50.43 0.3, 98.75 0 M98.75 0 C100.87 1.95, 104.17 2.09, 104 5.25 M98.75 0 C102.13 0.05, 104.02 2.31, 104 5.25 M104 5.25 C104.7 8.08, 104.13 10.76, 104 15.75 M104 5.25 C103.86 8.39, 103.73 11.71, 104 15.75 M104 15.75 C102.27 17.68, 101.41 20.53, 98.75 21 M104 15.75 C105.87 17.58, 101.05 22.61, 98.75 21 M98.75 21 C61.61 19.83, 23.61 20.83, 5.25 21 M98.75 21 C72.94 22.41, 48.11 22.18, 5.25 21 M5.25 21 C1.63 19.97, 0.02 17.5, 0 15.75 M5.25 21 C1.84 19.83, -2.04 20.05, 0 15.75 M0 15.75 C-0.77 11.79, -0.42 7.01, 0 5.25 M0 15.75 C-0.46 11.58, 0.11 7.69, 0 5.25 M0 5.25 C-0.64 1.02, 2.47 1.43, 5.25 0 M0 5.25 C1.39 2.34, 1.43 -1.27, 5.25 0" stroke="#2f9e44" stroke-width="2" fill="none"></path></g><g stroke-opacity="0.5" fill-opacity="0.5" stroke-linecap="round" transform="translate(398 144.5) rotate(0 52 10.5)"><path d="M5.25 0 C37.64 -1.15, 69.8 -1.67, 98.75 0 M5.25 0 C27.36 0.5, 51.13 0.01, 98.75 0 M98.75 0 C101.21 1.4, 105.88 1.9, 104 5.25 M98.75 0 C103.25 -0.32, 102.18 0.11, 104 5.25 M104 5.25 C104.94 7.58, 104.54 10.95, 104 15.75 M104 5.25 C104 8.27, 104.01 11.94, 104 15.75 M104 15.75 C102.23 19.94, 103.78 21.67, 98.75 21 M104 15.75 C101.94 17.63, 102.24 20.15, 98.75 21 M98.75 21 C77.81 18.64, 56.24 20.78, 5.25 21 M98.75 21 C79.09 21.37, 59.32 20.92, 5.25 21 M5.25 21 C1.47 19.9, 1.44 17.5, 0 15.75 M5.25 21 C1.96 18.93, -1.5 20.46, 0 15.75 M0 15.75 C0.16 13.5, 0.36 10.09, 0 5.25 M0 15.75 C0.48 13.28, -0.29 10.44, 0 5.25 M0 5.25 C0.54 3.18, 3.68 0.39, 5.25 0 M0 5.25 C0.27 3.11, 2.94 0.95, 5.25 0" stroke="#2f9e44" stroke-width="2" fill="none"></path></g><g stroke-opacity="0.5" fill-opacity="0.5" transform="translate(419 72.5) rotate(0 27.92799949645996 10)"><text x="0" y="0" font-family="Virgil, Segoe UI Emoji" font-size="16px" fill="#2f9e44" text-anchor="start" style="white-space: pre;" direction="ltr" dominant-baseline="text-before-edge">children</text></g><g stroke-opacity="0.5" fill-opacity="0.5" stroke-linecap="round" transform="translate(603.5 78.25) rotate(0 25.5 10.5)"><path d="M5.25 0 C15.81 -0.16, 30.32 0.01, 45.75 0 M5.25 0 C17.7 -0.08, 30.53 0.46, 45.75 0 M45.75 0 C50.06 0.72, 50.48 2.31, 51 5.25 M45.75 0 C47.59 2.19, 49.66 0.1, 51 5.25 M51 5.25 C51.73 7.19, 51.09 10.73, 51 15.75 M51 5.25 C50.7 7.69, 51.41 10.06, 51 15.75 M51 15.75 C50.52 19.82, 47.64 22.64, 45.75 21 M51 15.75 C49.73 17.42, 50.02 19.61, 45.75 21 M45.75 21 C38.04 22.56, 25.37 19.71, 5.25 21 M45.75 21 C31.18 20.95, 15.23 20.61, 5.25 21 M5.25 21 C0.03 22.39, 0.19 19.87, 0 15.75 M5.25 21 C1.75 21.39, -0.75 17.46, 0 15.75 M0 15.75 C1.1 13.2, 0.44 11.36, 0 5.25 M0 15.75 C-0.2 13.48, -0.16 10.74, 0 5.25 M0 5.25 C0.73 0.75, 0.87 1.93, 5.25 0 M0 5.25 C-0.28 2.57, 1.16 1.17, 5.25 0" stroke="#2f9e44" stroke-width="2" fill="none"></path></g><g stroke-opacity="0.5" fill-opacity="0.5" stroke-linecap="round" transform="translate(656.5 78.5) rotate(0 25.5 10.5)"><path d="M5.25 0 C21.72 0.36, 35.56 0.49, 45.75 0 M5.25 0 C19.37 0.89, 32.99 -0.3, 45.75 0 M45.75 0 C51 1.83, 49.69 1.11, 51 5.25 M45.75 0 C47.55 1.85, 51.69 0.14, 51 5.25 M51 5.25 C51.15 8.27, 51.38 12.17, 51 15.75 M51 5.25 C50.68 7.7, 51.38 10.42, 51 15.75 M51 15.75 C52.47 21.17, 47.43 21.03, 45.75 21 M51 15.75 C52.2 17.15, 49.69 19.77, 45.75 21 M45.75 21 C34.53 21.18, 24.24 21.19, 5.25 21 M45.75 21 C31.09 21.97, 16.23 21.67, 5.25 21 M5.25 21 C2.22 21.95, 0.64 20.76, 0 15.75 M5.25 21 C1.53 20.64, 1.21 21.35, 0 15.75 M0 15.75 C0.38 12.21, -0.38 10.55, 0 5.25 M0 15.75 C0.27 12.32, -0.15 8.38, 0 5.25 M0 5.25 C0.74 0.32, 0.76 1.8, 5.25 0 M0 5.25 C0.72 1.24, 3.18 -0.98, 5.25 0" stroke="#2f9e44" stroke-width="2" fill="none"></path></g><g stroke-linecap="round" transform="translate(10 198) rotate(0 14 14)"><path d="M7 0 C11.21 1.11, 16.76 1.1, 21 0 M7 0 C11.62 0.27, 16.89 0.67, 21 0 M21 0 C23.7 -1.14, 29.84 0.49, 28 7 M21 0 C26.84 -0.95, 30.19 0.78, 28 7 M28 7 C26.82 11.06, 28.84 15.51, 28 21 M28 7 C28.51 9.7, 27.6 12.95, 28 21 M28 21 C28.74 24.8, 26.79 28.98, 21 28 M28 21 C25.75 24.45, 24.35 28.8, 21 28 M21 28 C19.01 26.75, 15.22 27.63, 7 28 M21 28 C18.1 28.33, 14.84 28.06, 7 28 M7 28 C3.2 29.12, -1.77 25.25, 0 21 M7 28 C0.48 25.84, -1.28 27.04, 0 21 M0 21 C0.92 18.66, 0.79 14, 0 7 M0 21 C0.52 16.13, 0.51 10.87, 0 7 M0 7 C-1.34 3.27, 3.03 1.02, 7 0 M0 7 C-0.09 3.09, 1.52 1, 7 0" stroke="#2f9e44" stroke-width="2" fill="none"></path></g><g stroke-linecap="round" transform="translate(38 198) rotate(0 14 14)"><path d="M7 0 C10.37 0.89, 14.11 -0.54, 21 0 M7 0 C10.57 0.6, 14.25 -0.45, 21 0 M21 0 C27.51 -1.84, 29.02 1.51, 28 7 M21 0 C27.85 -1.56, 26.99 3.38, 28 7 M28 7 C28.65 11.34, 26.92 13.47, 28 21 M28 7 C27.64 11.16, 28.35 16.09, 28 21 M28 21 C29.13 26.65, 23.71 26.94, 21 28 M28 21 C26.68 26.47, 24.23 26.84, 21 28 M21 28 C16.63 27.39, 9.64 27.02, 7 28 M21 28 C18.34 28.25, 14.96 28.48, 7 28 M7 28 C0.56 27.58, -1.61 23.79, 0 21 M7 28 C1.06 29.37, -1.49 27.66, 0 21 M0 21 C0.81 15.75, 0.94 10.33, 0 7 M0 21 C0.33 17.11, -0.55 12.86, 0 7 M0 7 C0.69 3.35, 2.26 0.66, 7 0 M0 7 C-0.81 3.34, 0.87 0.72, 7 0" stroke="#2f9e44" stroke-width="2" fill="none"></path></g><g stroke-linecap="round" transform="translate(66 198) rotate(0 14 14)"><path d="M7 0 C13.15 -0.54, 17.17 -1.15, 21 0 M7 0 C11.01 -0.53, 17.04 -0.77, 21 0 M21 0 C26.68 -0.82, 29.9 0.98, 28 7 M21 0 C24.66 1.04, 26.03 0.29, 28 7 M28 7 C27.12 12.14, 28.58 17.27, 28 21 M28 7 C28.17 9.82, 28.3 13.58, 28 21 M28 21 C26.04 24.61, 24.52 28.7, 21 28 M28 21 C26.57 24.51, 27.39 30.2, 21 28 M21 28 C17.3 27.11, 14.29 28.83, 7 28 M21 28 C16.24 28.43, 10.26 27.89, 7 28 M7 28 C0.72 26.12, -1.11 26.86, 0 21 M7 28 C0.84 29.99, 1.05 27.37, 0 21 M0 21 C0.95 14.84, -0.06 11.52, 0 7 M0 21 C-0.55 16.38, 0.16 11.47, 0 7 M0 7 C-0.08 2.99, 1.63 0.87, 7 0 M0 7 C-1.47 3.06, 2.11 -1.01, 7 0" stroke="#2f9e44" stroke-width="2" fill="none"></path></g><g stroke-linecap="round" transform="translate(94 198) rotate(0 14 14)"><path d="M7 0 C11.96 -1, 17.87 -0.75, 21 0 M7 0 C13.14 -0.57, 18.35 -0.21, 21 0 M21 0 C27.57 -1.35, 27.12 3.24, 28 7 M21 0 C23.7 -2.04, 28.78 3.61, 28 7 M28 7 C28.4 13.46, 26.82 17.17, 28 21 M28 7 C28.45 10.47, 27.37 12.88, 28 21 M28 21 C26.85 26.36, 24.42 26.99, 21 28 M28 21 C29.72 27.87, 23.43 29.44, 21 28 M21 28 C16.24 28.8, 14.4 28.95, 7 28 M21 28 C15.85 27.93, 11.37 27.42, 7 28 M7 28 C1.22 29.19, -1.29 27.4, 0 21 M7 28 C3.38 29.71, 1.57 27.17, 0 21 M0 21 C-0.07 18.04, 0.64 14.24, 0 7 M0 21 C0.34 16.47, 0.07 11.45, 0 7 M0 7 C-0.71 3.21, 1.06 0.63, 7 0 M0 7 C-0.23 1.32, 2.87 0.11, 7 0" stroke="#2f9e44" stroke-width="2" fill="none"></path></g><g stroke-linecap="round" transform="translate(1105 156) rotate(0 14 14)"><path d="M7 0 C8.97 -0.88, 13.31 0.8, 21 0 M7 0 C10.37 0.4, 14.34 0.16, 21 0 M21 0 C27.53 0.2, 26.66 1.26, 28 7 M21 0 C24 -2.12, 27.29 0.69, 28 7 M28 7 C28.84 9.47, 27.74 15.71, 28 21 M28 7 C28.67 9.3, 28.76 12.15, 28 21 M28 21 C26.54 26.35, 27.48 26.79, 21 28 M28 21 C26.49 23.71, 27.25 27.35, 21 28 M21 28 C18.54 28.39, 14.54 27.05, 7 28 M21 28 C18 27.64, 14.42 27.94, 7 28 M7 28 C4.04 27.79, -1.86 26.7, 0 21 M7 28 C1.06 29.13, -0.29 27.14, 0 21 M0 21 C1 16.9, -0.12 15.75, 0 7 M0 21 C0.17 18, 0.19 14.67, 0 7 M0 7 C0.54 0.36, 0.82 0.7, 7 0 M0 7 C-1.47 4.37, 2.12 0.11, 7 0" stroke="#2f9e44" stroke-width="2" fill="none"></path></g><g stroke-linecap="round" transform="translate(1133 156) rotate(0 14 14)"><path d="M7 0 C10.04 0.8, 13.14 1.15, 21 0 M7 0 C10.67 0.09, 16.36 -0.01, 21 0 M21 0 C24.33 -1.07, 26.55 0.49, 28 7 M21 0 C24.95 -1.65, 27.29 0.4, 28 7 M28 7 C27.95 12.32, 26.77 16.2, 28 21 M28 7 C28.79 10.28, 27.6 14.98, 28 21 M28 21 C29.81 24.46, 24.35 26.3, 21 28 M28 21 C29.58 25.02, 23.47 29.6, 21 28 M21 28 C14.88 26.96, 9.09 27.27, 7 28 M21 28 C15.75 27.8, 12.06 27.84, 7 28 M7 28 C0.48 29.03, -1.11 26.65, 0 21 M7 28 C2.04 29.47, -2.25 27.89, 0 21 M0 21 C-0.09 17.66, -1.43 14.17, 0 7 M0 21 C0.21 15.9, 0.14 11.21, 0 7 M0 7 C-1.52 3.03, 1.05 1.77, 7 0 M0 7 C-0.21 2.45, 3.99 -1.92, 7 0" stroke="#2f9e44" stroke-width="2" fill="none"></path></g><g stroke-linecap="round" transform="translate(1161 156) rotate(0 14 14)"><path d="M7 0 C10.03 0.98, 13.59 -1.35, 21 0 M7 0 C12.69 0.04, 16.61 -0.41, 21 0 M21 0 C24.22 -1.84, 27.38 0.9, 28 7 M21 0 C24.96 -1.93, 27.91 3.91, 28 7 M28 7 C26.66 10.81, 27.66 13.96, 28 21 M28 7 C27.62 10.31, 28.77 12.71, 28 21 M28 21 C26.69 23.96, 27.04 27.44, 21 28 M28 21 C25.8 27.26, 27.6 28.65, 21 28 M21 28 C15.37 27.14, 12.62 27.99, 7 28 M21 28 C18.23 27.9, 13.61 28.34, 7 28 M7 28 C1.22 28.98, -0.26 26.94, 0 21 M7 28 C0.09 30.22, -0.73 27.53, 0 21 M0 21 C-1.32 18.76, 0.35 15.62, 0 7 M0 21 C0.14 16.34, -0.58 13.3, 0 7 M0 7 C-1.28 4.1, 2.15 0.1, 7 0 M0 7 C1.65 0.41, 3.53 1.41, 7 0" stroke="#2f9e44" stroke-width="2" fill="none"></path></g><g stroke-linecap="round" transform="translate(1189 156) rotate(0 14 14)"><path d="M7 0 C12.05 -1.38, 17.64 -1.47, 21 0 M7 0 C11.08 -0.39, 15.6 -0.66, 21 0 M21 0 C25.05 -1.43, 27.38 0.65, 28 7 M21 0 C25.58 1.57, 25.87 2.1, 28 7 M28 7 C27.54 13.52, 26.73 19.09, 28 21 M28 7 C28.53 9.6, 27.44 12.45, 28 21 M28 21 C29.38 25.1, 23.75 29.39, 21 28 M28 21 C29.94 26.32, 26.12 26.79, 21 28 M21 28 C18.44 28.02, 13.9 26.96, 7 28 M21 28 C16.39 28.35, 12.68 28.33, 7 28 M7 28 C2.08 29.28, -1.95 27.6, 0 21 M7 28 C1.6 29.87, -2.09 25.7, 0 21 M0 21 C0.48 16.86, -0.09 12.29, 0 7 M0 21 C-0.57 18.15, -0.49 15.44, 0 7 M0 7 C-0.18 2.43, 3.77 -1.67, 7 0 M0 7 C1.2 3.75, 2.98 -0.01, 7 0" stroke="#2f9e44" stroke-width="2" fill="none"></path></g><g stroke-opacity="0.5" fill-opacity="0.5" stroke-linecap="round" transform="translate(707 78.375) rotate(0 25.5 10.5)"><path d="M5.25 0 C21.26 -0.95, 37.44 -0.49, 45.75 0 M5.25 0 C20.2 0.37, 32.7 -0.16, 45.75 0 M45.75 0 C49.44 1.74, 50.69 2.74, 51 5.25 M45.75 0 C51.23 1.99, 52.51 0.69, 51 5.25 M51 5.25 C49.92 9.29, 51.92 11.22, 51 15.75 M51 5.25 C51.29 7.63, 51.43 9.56, 51 15.75 M51 15.75 C52.97 19.67, 48.57 21.67, 45.75 21 M51 15.75 C49.04 18.68, 48.29 20.21, 45.75 21 M45.75 21 C34.33 23.04, 22.34 22.75, 5.25 21 M45.75 21 C35.21 20.87, 21.97 20.32, 5.25 21 M5.25 21 C2.54 21.56, -1.28 20.45, 0 15.75 M5.25 21 C-0.14 20.25, 1.19 21.39, 0 15.75 M0 15.75 C-0.59 12.98, 0.32 9.91, 0 5.25 M0 15.75 C0.09 12.08, 0.45 8.92, 0 5.25 M0 5.25 C-1.08 2.16, 0.64 0.34, 5.25 0 M0 5.25 C1.82 3.62, 0.89 -1.45, 5.25 0" stroke="#2f9e44" stroke-width="2" fill="none"></path></g><g stroke-opacity="0.5" fill-opacity="0.5" stroke-linecap="round" transform="translate(760 78.625) rotate(0 25.5 10.5)"><path d="M5.25 0 C15.87 -0.47, 26.38 0.84, 45.75 0 M5.25 0 C14.2 -0.45, 24.77 0.82, 45.75 0 M45.75 0 C48.94 0.99, 52.72 3.48, 51 5.25 M45.75 0 C50.76 -1.06, 51.02 0.85, 51 5.25 M51 5.25 C51.86 8.19, 49.87 11.9, 51 15.75 M51 5.25 C51.48 8.4, 51.57 11.52, 51 15.75 M51 15.75 C50.32 19.92, 47.54 20.5, 45.75 21 M51 15.75 C50.04 18.46, 49.47 22.25, 45.75 21 M45.75 21 C31.31 22.69, 13.19 19.79, 5.25 21 M45.75 21 C29.94 19.88, 16.2 21.12, 5.25 21 M5.25 21 C0.47 22.2, -1.65 18.6, 0 15.75 M5.25 21 C2.94 23.14, -0.51 18.95, 0 15.75 M0 15.75 C0.37 12.37, 0.37 9.63, 0 5.25 M0 15.75 C0.49 11.96, -0.31 8.07, 0 5.25 M0 5.25 C-1.11 2.09, 3.34 1.62, 5.25 0 M0 5.25 C-0.86 0.3, 0.6 2.18, 5.25 0" stroke="#2f9e44" stroke-width="2" fill="none"></path></g><g stroke-opacity="0.5" fill-opacity="0.5" stroke-linecap="round" transform="translate(607.25 106.3125) rotate(0 25.5 10.5)"><path d="M5.25 0 C20.62 0.17, 35.22 -1.86, 45.75 0 M5.25 0 C13.77 -0.42, 23.48 -0.46, 45.75 0 M45.75 0 C50.39 -1.3, 50.76 1.12, 51 5.25 M45.75 0 C47.64 1.99, 52.89 0.35, 51 5.25 M51 5.25 C51.85 9.23, 51.69 12.76, 51 15.75 M51 5.25 C51.27 9.35, 50.69 13.77, 51 15.75 M51 15.75 C52.25 19.31, 49.52 21.97, 45.75 21 M51 15.75 C49.52 18.37, 49.22 19.2, 45.75 21 M45.75 21 C36.79 22.25, 28.27 22.44, 5.25 21 M45.75 21 C33.52 21.11, 18.58 20.93, 5.25 21 M5.25 21 C3.2 22.38, -1.55 21.11, 0 15.75 M5.25 21 C3.26 21.92, 2.29 17.14, 0 15.75 M0 15.75 C0.6 12.48, -0.57 8.11, 0 5.25 M0 15.75 C0.2 11.55, 0.27 7.36, 0 5.25 M0 5.25 C-0.12 3.44, 0.86 -1.36, 5.25 0 M0 5.25 C1.05 0.04, 2.9 1.74, 5.25 0" stroke="#2f9e44" stroke-width="2" fill="none"></path></g><g stroke-opacity="0.5" fill-opacity="0.5" stroke-linecap="round" transform="translate(660.25 106.5625) rotate(0 25.5 10.5)"><path d="M5.25 0 C16.85 -1.95, 26.39 1.45, 45.75 0 M5.25 0 C17.1 -0.35, 28.05 -0.44, 45.75 0 M45.75 0 C49.01 -0.63, 49.6 3.48, 51 5.25 M45.75 0 C51.14 -1.4, 51.34 -0.5, 51 5.25 M51 5.25 C51.89 9.33, 52.14 12.3, 51 15.75 M51 5.25 C50.67 8.44, 51.37 11.38, 51 15.75 M51 15.75 C51.27 20.22, 47.96 20.24, 45.75 21 M51 15.75 C50.97 17.45, 47.42 18.81, 45.75 21 M45.75 21 C33.9 22.69, 21.79 23.02, 5.25 21 M45.75 21 C35.41 21.36, 27.57 21.84, 5.25 21 M5.25 21 C0.2 22.86, 1.31 20.05, 0 15.75 M5.25 21 C4.04 18.89, 1.15 20.76, 0 15.75 M0 15.75 C-0.57 13.33, 0.97 11.27, 0 5.25 M0 15.75 C0.21 11.54, -0.07 7.8, 0 5.25 M0 5.25 C-0.89 0.39, 2.66 -1.49, 5.25 0 M0 5.25 C1.15 3.49, 0.84 0.71, 5.25 0" stroke="#2f9e44" stroke-width="2" fill="none"></path></g><g stroke-opacity="0.5" fill-opacity="0.5" stroke-linecap="round" transform="translate(710.75 106.4375) rotate(0 25.5 10.5)"><path d="M5.25 0 C15.91 1.86, 29.43 -0.07, 45.75 0 M5.25 0 C15.85 -0.42, 25.18 -0.09, 45.75 0 M45.75 0 C47.85 1.73, 52.64 0.54, 51 5.25 M45.75 0 C49.59 -2.25, 51.09 3.84, 51 5.25 M51 5.25 C52.12 9.74, 50.98 13.31, 51 15.75 M51 5.25 C51.25 8.24, 51 11.45, 51 15.75 M51 15.75 C49.71 18.49, 49.22 19.44, 45.75 21 M51 15.75 C49.17 17.06, 49.29 20.96, 45.75 21 M45.75 21 C31.58 23.06, 15.09 23.1, 5.25 21 M45.75 21 C32.79 21.77, 17.61 22.01, 5.25 21 M5.25 21 C3.06 21.8, 2 17.41, 0 15.75 M5.25 21 C2.9 22.51, -2.25 20.71, 0 15.75 M0 15.75 C1.09 11.96, 1.1 8.99, 0 5.25 M0 15.75 C-0.08 13.07, -0.28 9.14, 0 5.25 M0 5.25 C0.91 0.26, 2.75 1.51, 5.25 0 M0 5.25 C-0.91 2.46, 1.91 -0.07, 5.25 0" stroke="#2f9e44" stroke-width="2" fill="none"></path></g><g stroke-opacity="0.5" fill-opacity="0.5" stroke-linecap="round" transform="translate(763.75 106.6875) rotate(0 25.5 10.5)"><path d="M5.25 0 C12.97 -0.76, 20.66 1.18, 45.75 0 M5.25 0 C15.02 -0.05, 24.32 1.13, 45.75 0 M45.75 0 C50.89 -1.21, 51.3 -0.2, 51 5.25 M45.75 0 C49.34 2.09, 52.48 3.49, 51 5.25 M51 5.25 C51.01 9.7, 50.93 12.59, 51 15.75 M51 5.25 C51.14 8.92, 50.73 11.89, 51 15.75 M51 15.75 C50.97 17.69, 47.66 19.09, 45.75 21 M51 15.75 C51.04 19.21, 50.68 21.43, 45.75 21 M45.75 21 C29.36 23.17, 16.39 19.57, 5.25 21 M45.75 21 C32 22.21, 20.46 21.68, 5.25 21 M5.25 21 C3.75 19.16, 1 20.56, 0 15.75 M5.25 21 C-0.5 22.46, 0.89 18.16, 0 15.75 M0 15.75 C0.94 13.25, -0.13 10.53, 0 5.25 M0 15.75 C-0.23 12.26, 0.25 9.09, 0 5.25 M0 5.25 C1 3.26, 0.96 0.62, 5.25 0 M0 5.25 C0.16 1.68, 1.63 -1.12, 5.25 0" stroke="#2f9e44" stroke-width="2" fill="none"></path></g><g stroke-opacity="0.5" fill-opacity="0.5" stroke-linecap="round" transform="translate(606.25 135.3125) rotate(0 25.5 10.5)"><path d="M5.25 0 C19.14 -0.43, 28.19 0.92, 45.75 0 M5.25 0 C16.78 -0.52, 27.78 0.6, 45.75 0 M45.75 0 C48.93 -0.43, 51 1.84, 51 5.25 M45.75 0 C50.16 -1.41, 53.17 -0.11, 51 5.25 M51 5.25 C51.36 7.85, 51.09 11.26, 51 15.75 M51 5.25 C51.27 9.14, 50.85 12.81, 51 15.75 M51 15.75 C50.64 18.16, 47.46 19.83, 45.75 21 M51 15.75 C48.82 18.15, 48.99 21.24, 45.75 21 M45.75 21 C35.03 22.56, 21.36 18.98, 5.25 21 M45.75 21 C36.29 19.82, 27.39 20.16, 5.25 21 M5.25 21 C0.9 21.56, -0.23 18.36, 0 15.75 M5.25 21 C2.55 19.63, -1.35 18.54, 0 15.75 M0 15.75 C0.46 12.7, -0.91 8.11, 0 5.25 M0 15.75 C-0.25 12.58, 0.3 8.25, 0 5.25 M0 5.25 C-1.7 2.98, 1.66 -1.21, 5.25 0 M0 5.25 C-1.31 1.9, -0.16 -0.87, 5.25 0" stroke="#2f9e44" stroke-width="2" fill="none"></path></g><g stroke-opacity="0.5" fill-opacity="0.5" stroke-linecap="round" transform="translate(659.25 135.5625) rotate(0 25.5 10.5)"><path d="M5.25 0 C17.09 1.11, 31.67 1.08, 45.75 0 M5.25 0 C14.97 0.66, 24.14 0.1, 45.75 0 M45.75 0 C49.25 0.09, 51.79 0.53, 51 5.25 M45.75 0 C51.42 -1.86, 50.74 2.41, 51 5.25 M51 5.25 C51.09 9.37, 51.87 12.77, 51 15.75 M51 5.25 C51 8.64, 50.98 12.57, 51 15.75 M51 15.75 C49.21 18.08, 47.35 20.05, 45.75 21 M51 15.75 C50.74 19.49, 49.03 22.67, 45.75 21 M45.75 21 C34.34 19.48, 23.07 21.97, 5.25 21 M45.75 21 C35.57 20.02, 25.83 20.9, 5.25 21 M5.25 21 C1.52 20.11, 0.69 18.06, 0 15.75 M5.25 21 C0.4 20.29, 0.74 19.94, 0 15.75 M0 15.75 C-0.93 11.68, 0.34 9.98, 0 5.25 M0 15.75 C0.43 12.69, -0.42 10.81, 0 5.25 M0 5.25 C-0.09 0.54, 0.61 0.13, 5.25 0 M0 5.25 C-1.91 0.88, 0.04 1.96, 5.25 0" stroke="#2f9e44" stroke-width="2" fill="none"></path></g><g stroke-opacity="0.5" fill-opacity="0.5" stroke-linecap="round" transform="translate(709.75 135.4375) rotate(0 25.5 10.5)"><path d="M5.25 0 C16.3 0.81, 27.03 0.51, 45.75 0 M5.25 0 C14.07 -0.35, 23.21 -0.09, 45.75 0 M45.75 0 C50.04 -1.22, 52.89 0.13, 51 5.25 M45.75 0 C48.99 0.66, 53.24 2.47, 51 5.25 M51 5.25 C51.84 7.15, 51.66 11.39, 51 15.75 M51 5.25 C50.89 7.93, 50.52 10.88, 51 15.75 M51 15.75 C49.1 18.3, 49.03 21.21, 45.75 21 M51 15.75 C50.78 20.92, 48.34 22.2, 45.75 21 M45.75 21 C28.54 21.24, 13.3 19.63, 5.25 21 M45.75 21 C36.96 21.04, 28.92 20.31, 5.25 21 M5.25 21 C2.44 19.81, -1.17 18.64, 0 15.75 M5.25 21 C2.49 21.69, 0.55 20.33, 0 15.75 M0 15.75 C0.48 13.19, -0.43 8.28, 0 5.25 M0 15.75 C-0.53 12.18, -0.1 7.65, 0 5.25 M0 5.25 C-1.14 1.88, 0.09 -0.76, 5.25 0 M0 5.25 C-1.71 3.71, 2.73 1.62, 5.25 0" stroke="#2f9e44" stroke-width="2" fill="none"></path></g><g stroke-opacity="0.5" fill-opacity="0.5" stroke-linecap="round" transform="translate(762.75 135.6875) rotate(0 25.5 10.5)"><path d="M5.25 0 C18.23 0.51, 32.24 0.18, 45.75 0 M5.25 0 C18.78 0.13, 32.7 -0.52, 45.75 0 M45.75 0 C51.14 -1.62, 50.78 2.32, 51 5.25 M45.75 0 C51.49 0.72, 50.06 1.89, 51 5.25 M51 5.25 C51.74 9.05, 50.9 11.31, 51 15.75 M51 5.25 C50.51 7.27, 50.48 9.66, 51 15.75 M51 15.75 C50.78 19.46, 49.06 22.45, 45.75 21 M51 15.75 C50.09 20.45, 51.23 20.01, 45.75 21 M45.75 21 C36.19 20.14, 27.13 20.27, 5.25 21 M45.75 21 C35.91 20.67, 26.64 20.52, 5.25 21 M5.25 21 C0.58 20.39, 0.64 19.85, 0 15.75 M5.25 21 C2.3 22.08, 0.96 17.32, 0 15.75 M0 15.75 C-0.56 12.97, 0.7 11.59, 0 5.25 M0 15.75 C0.07 13.13, -0.21 11.18, 0 5.25 M0 5.25 C-1.66 0.99, 0.26 1.71, 5.25 0 M0 5.25 C0.98 3.37, -0.01 -0.91, 5.25 0" stroke="#2f9e44" stroke-width="2" fill="none"></path></g><g stroke-opacity="0.5" fill-opacity="0.5" stroke-linecap="round" transform="translate(607.25 162.3125) rotate(0 25.5 10.5)"><path d="M5.25 0 C15.25 -0.76, 25.63 -0.06, 45.75 0 M5.25 0 C17.3 -0.25, 29.89 -0.89, 45.75 0 M45.75 0 C47.77 -0.48, 51.58 0.43, 51 5.25 M45.75 0 C50.09 -2.2, 50.63 -0.41, 51 5.25 M51 5.25 C50.5 8.51, 50.33 10.02, 51 15.75 M51 5.25 C51.36 8.03, 50.82 11.38, 51 15.75 M51 15.75 C52.95 19.37, 49.89 19.22, 45.75 21 M51 15.75 C49.42 17.26, 49.76 23.07, 45.75 21 M45.75 21 C33.63 19.57, 18.58 20.08, 5.25 21 M45.75 21 C36.55 21.67, 26.31 20.71, 5.25 21 M5.25 21 C3.28 22.63, -1.65 18.68, 0 15.75 M5.25 21 C3.71 21.59, -1 18.53, 0 15.75 M0 15.75 C0.95 13.2, 0.54 10.29, 0 5.25 M0 15.75 C0.33 13.07, -0.36 9.21, 0 5.25 M0 5.25 C-0.87 2.91, 0.93 -0.96, 5.25 0 M0 5.25 C0.1 3.03, 3.56 0.72, 5.25 0" stroke="#2f9e44" stroke-width="2" fill="none"></path></g><g stroke-opacity="0.5" fill-opacity="0.5" stroke-linecap="round" transform="translate(660.25 162.5625) rotate(0 25.5 10.5)"><path d="M5.25 0 C19.09 0.35, 35.93 -1.49, 45.75 0 M5.25 0 C16.61 -0.83, 27.33 -0.11, 45.75 0 M45.75 0 C49.83 -1.32, 51.73 -0.17, 51 5.25 M45.75 0 C48.88 -2.16, 49.68 3.34, 51 5.25 M51 5.25 C50.21 8.65, 50.63 11.84, 51 15.75 M51 5.25 C51 8.72, 51.6 11.32, 51 15.75 M51 15.75 C51.64 17.47, 47.88 19.27, 45.75 21 M51 15.75 C51.51 21.32, 50.29 20.97, 45.75 21 M45.75 21 C34.8 19.84, 20.9 20.93, 5.25 21 M45.75 21 C32.68 20.93, 21.5 22.07, 5.25 21 M5.25 21 C0.1 20.43, 1.71 19.77, 0 15.75 M5.25 21 C0.75 20.28, 0.02 21.03, 0 15.75 M0 15.75 C0.52 13.3, -0.2 9.89, 0 5.25 M0 15.75 C-0.37 12.83, -0.31 11.07, 0 5.25 M0 5.25 C-0.82 0.79, 1.83 1.11, 5.25 0 M0 5.25 C1.81 2.47, 0.39 1.53, 5.25 0" stroke="#2f9e44" stroke-width="2" fill="none"></path></g><g stroke-opacity="0.5" fill-opacity="0.5" stroke-linecap="round" transform="translate(710.75 162.4375) rotate(0 25.5 10.5)"><path d="M5.25 0 C16.6 -1.63, 27.4 -0.64, 45.75 0 M5.25 0 C15.36 0.15, 27.24 -0.27, 45.75 0 M45.75 0 C49.98 -1.92, 50.68 -0.12, 51 5.25 M45.75 0 C47.93 1.59, 52.26 0.5, 51 5.25 M51 5.25 C50.61 8.25, 50.8 13.87, 51 15.75 M51 5.25 C51.49 8.32, 51.15 10.86, 51 15.75 M51 15.75 C49.63 17.52, 49.7 22.8, 45.75 21 M51 15.75 C52.04 19.22, 49.03 23.15, 45.75 21 M45.75 21 C35.08 21.04, 27.27 21.28, 5.25 21 M45.75 21 C31.79 21.68, 15.48 20.59, 5.25 21 M5.25 21 C3.46 21.52, -0.87 18.62, 0 15.75 M5.25 21 C1.77 22.78, 0.35 21.5, 0 15.75 M0 15.75 C-0.16 12.76, -0.72 9.05, 0 5.25 M0 15.75 C-0.17 12.14, -0.16 7.68, 0 5.25 M0 5.25 C0.08 2.86, 3.32 0.63, 5.25 0 M0 5.25 C-1.36 3.28, 2.97 2.06, 5.25 0" stroke="#2f9e44" stroke-width="2" fill="none"></path></g><g stroke-opacity="0.5" fill-opacity="0.5" stroke-linecap="round" transform="translate(763.75 162.6875) rotate(0 25.5 10.5)"><path d="M5.25 0 C17.56 -0.26, 29.96 0.22, 45.75 0 M5.25 0 C13.79 -0.56, 22.11 -0.86, 45.75 0 M45.75 0 C48.93 -1.87, 49.85 3.13, 51 5.25 M45.75 0 C50.51 -1.25, 52.56 0.13, 51 5.25 M51 5.25 C50.84 8.96, 50.86 10.7, 51 15.75 M51 5.25 C51.27 8.84, 50.74 12.9, 51 15.75 M51 15.75 C51.45 21.05, 50.16 20.97, 45.75 21 M51 15.75 C50.78 21.4, 47.65 21.92, 45.75 21 M45.75 21 C35.55 21.5, 26.27 19.91, 5.25 21 M45.75 21 C34.09 21.05, 24.93 21.59, 5.25 21 M5.25 21 C0.88 20.37, 0.02 20.8, 0 15.75 M5.25 21 C2.1 23.25, 1.33 20.61, 0 15.75 M0 15.75 C-0.65 12.55, 0.77 7.15, 0 5.25 M0 15.75 C-0.17 13.21, 0.07 11.46, 0 5.25 M0 5.25 C1.57 2.38, 0.56 1.33, 5.25 0 M0 5.25 C1.22 3.81, 2.17 1.92, 5.25 0" stroke="#2f9e44" stroke-width="2" fill="none"></path></g><g stroke-opacity="0.5" fill-opacity="0.5" stroke-linecap="round" transform="translate(576.4087837837837 81.46875) rotate(0 10.648648648648646 7.972972972972968)"><path d="M3.99 0 C7.69 0.23, 12.82 -0.22, 17.31 0 M3.99 0 C9.13 -0.38, 13.96 -0.01, 17.31 0 M17.31 0 C20.67 1.21, 22.54 -0.27, 21.3 3.99 M17.31 0 C19.1 0.72, 21.63 3, 21.3 3.99 M21.3 3.99 C21.7 6.38, 21.64 7.63, 21.3 11.96 M21.3 3.99 C21.1 6.43, 21.13 9.37, 21.3 11.96 M21.3 11.96 C22.69 13.21, 18.81 15.83, 17.31 15.95 M21.3 11.96 C20.18 14.76, 18.56 13.79, 17.31 15.95 M17.31 15.95 C13.02 15.68, 9.59 14.94, 3.99 15.95 M17.31 15.95 C15.07 16, 11.99 15.65, 3.99 15.95 M3.99 15.95 C0.39 14.18, -1.79 16.56, 0 11.96 M3.99 15.95 C1.74 14.04, 1.62 15.44, 0 11.96 M0 11.96 C-0.81 9.5, -0.39 8.87, 0 3.99 M0 11.96 C-0.1 8.78, -0.4 5.8, 0 3.99 M0 3.99 C0.65 2, 0.36 -1.35, 3.99 0 M0 3.99 C-0.45 3.6, 0.41 1.78, 3.99 0" stroke="#2f9e44" stroke-width="2" fill="none"></path></g><g stroke-opacity="0.5" fill-opacity="0.5" stroke-linecap="round" transform="translate(579.0777027027027 110.44115990990991) rotate(0 11.648648648648646 7.472972972972968)"><path d="M3.74 0 C7.02 -0.18, 12.27 -0.06, 19.56 0 M3.74 0 C8.04 0.02, 12.36 0.29, 19.56 0 M19.56 0 C22.67 -0.8, 22.92 1.56, 23.3 3.74 M19.56 0 C22.22 0.83, 22.43 0.95, 23.3 3.74 M23.3 3.74 C23.49 5.58, 23.49 7.03, 23.3 11.21 M23.3 3.74 C23.24 5.44, 23.42 7.13, 23.3 11.21 M23.3 11.21 C22.72 13.64, 21.57 15.01, 19.56 14.95 M23.3 11.21 C22.59 12.62, 21.43 15.72, 19.56 14.95 M19.56 14.95 C13.66 14.31, 8.35 15.4, 3.74 14.95 M19.56 14.95 C16.02 14.85, 12.25 14.62, 3.74 14.95 M3.74 14.95 C0.35 15.92, 0.18 12.87, 0 11.21 M3.74 14.95 C2.06 15.36, -0.73 13.99, 0 11.21 M0 11.21 C-0.13 8.76, 0.37 5.88, 0 3.74 M0 11.21 C-0.16 8.58, 0.07 5.99, 0 3.74 M0 3.74 C-0.49 0.57, 1.05 0.99, 3.74 0 M0 3.74 C-0.46 2.14, 0.95 -1.13, 3.74 0" stroke="#2f9e44" stroke-width="2" fill="none"></path></g><g stroke-opacity="0.5" fill-opacity="0.5" stroke-linecap="round" transform="translate(579.365990990991 138.08079954954954) rotate(0 11.648648648648646 6.972972972972968)"><path d="M3.49 0 C9.16 -0.03, 13.41 0.27, 19.81 0 M3.49 0 C7.5 0.25, 11.48 -0.32, 19.81 0 M19.81 0 C21.76 0.31, 23.44 1.89, 23.3 3.49 M19.81 0 C21.27 -0.3, 22.63 1.77, 23.3 3.49 M23.3 3.49 C23.47 5.8, 23.09 8.61, 23.3 10.46 M23.3 3.49 C23.41 4.91, 23.19 6.56, 23.3 10.46 M23.3 10.46 C22.81 12.84, 21.52 13.01, 19.81 13.95 M23.3 10.46 C22.67 13.55, 22.47 13.07, 19.81 13.95 M19.81 13.95 C14.48 14.37, 10.16 14.42, 3.49 13.95 M19.81 13.95 C14.34 13.56, 8.88 14.32, 3.49 13.95 M3.49 13.95 C1.34 13.12, 0.71 13.14, 0 10.46 M3.49 13.95 C0.43 14.24, 0.8 11.64, 0 10.46 M0 10.46 C0.32 9.05, 0.2 7.24, 0 3.49 M0 10.46 C0.09 8.58, -0.05 6.46, 0 3.49 M0 3.49 C-0.2 2.15, 0.76 0.78, 3.49 0 M0 3.49 C-0.29 0.03, 0.77 -0.87, 3.49 0" stroke="#2f9e44" stroke-width="2" fill="none"></path></g><g stroke-opacity="0.5" fill-opacity="0.5" stroke-linecap="round" transform="translate(579.0777027027027 165.58530405405406) rotate(0 10.648648648648646 6.972972972972968)"><path d="M3.49 0 C7.25 0.23, 11.03 0.11, 17.81 0 M3.49 0 C7.89 -0.33, 11.71 0.07, 17.81 0 M17.81 0 C20.28 0.73, 20.54 0.9, 21.3 3.49 M17.81 0 C19.47 0.6, 22.17 1.69, 21.3 3.49 M21.3 3.49 C21.09 5.53, 21.04 7.7, 21.3 10.46 M21.3 3.49 C21.22 5.34, 21.24 7.22, 21.3 10.46 M21.3 10.46 C20.68 11.85, 19.59 14.62, 17.81 13.95 M21.3 10.46 C21.64 11.91, 19.87 12.94, 17.81 13.95 M17.81 13.95 C14.1 14.46, 11.63 14.02, 3.49 13.95 M17.81 13.95 C13.61 14.23, 10.12 13.59, 3.49 13.95 M3.49 13.95 C1.87 14.3, -0.64 13.04, 0 10.46 M3.49 13.95 C1.96 12.8, -0.84 12.25, 0 10.46 M0 10.46 C0.16 7.73, -0.11 4.78, 0 3.49 M0 10.46 C-0.1 8.2, -0.05 6.34, 0 3.49 M0 3.49 C-0.4 1.94, 0.91 -0.98, 3.49 0 M0 3.49 C-0.39 0.29, 1.77 -0.53, 3.49 0" stroke="#2f9e44" stroke-width="2" fill="none"></path></g><g stroke-opacity="0.5" fill-opacity="0.5" transform="translate(616 59) rotate(0 16.375999450683594 10)"><text x="0" y="0" font-family="Virgil, Segoe UI Emoji" font-size="16px" fill="#1e1e1e" text-anchor="start" style="white-space: pre;" direction="ltr" dominant-baseline="text-before-edge">child</text></g><g stroke-opacity="0.5" fill-opacity="0.5" transform="translate(666.7439994812012 58) rotate(0 16.336000442504883 10)"><text x="0" y="0" font-family="Virgil, Segoe UI Emoji" font-size="16px" fill="#1e1e1e" text-anchor="start" style="white-space: pre;" direction="ltr" dominant-baseline="text-before-edge">port</text></g><g stroke-opacity="0.5" fill-opacity="0.5" transform="translate(715.2919998168945 58.5) rotate(0 16.375999450683594 10)"><text x="0" y="0" font-family="Virgil, Segoe UI Emoji" font-size="16px" fill="#1e1e1e" text-anchor="start" style="white-space: pre;" direction="ltr" dominant-baseline="text-before-edge">child</text></g><g stroke-opacity="0.5" fill-opacity="0.5" transform="translate(767.0359992980957 57.5) rotate(0 16.336000442504883 10)"><text x="0" y="0" font-family="Virgil, Segoe UI Emoji" font-size="16px" fill="#1e1e1e" text-anchor="start" style="white-space: pre;" direction="ltr" dominant-baseline="text-before-edge">port</text></g><g stroke-opacity="0.5" fill-opacity="0.5" transform="translate(576.6240005493164 59) rotate(0 9.743999481201172 10)"><text x="0" y="0" font-family="Virgil, Segoe UI Emoji" font-size="16px" fill="#1e1e1e" text-anchor="start" style="white-space: pre;" direction="ltr" dominant-baseline="text-before-edge">dir</text></g><g stroke-opacity="0.5" fill-opacity="0.5" transform="translate(626 43) rotate(0 32.4640007019043 10)"><text x="0" y="0" font-family="Virgil, Segoe UI Emoji" font-size="16px" fill="#1e1e1e" text-anchor="start" style="white-space: pre;" direction="ltr" dominant-baseline="text-before-edge">SENDER</text></g><g stroke-opacity="0.5" fill-opacity="0.5" transform="translate(716.0480003356934 43) rotate(0 40.672000885009766 10)"><text x="0" y="0" font-family="Virgil, Segoe UI Emoji" font-size="16px" fill="#1e1e1e" text-anchor="start" style="white-space: pre;" direction="ltr" dominant-baseline="text-before-edge">RECEIVER</text></g><g stroke-opacity="0.5" fill-opacity="0.5" transform="translate(648.07200050354 21) rotate(0 43.09600067138672 10)"><text x="0" y="0" font-family="Virgil, Segoe UI Emoji" font-size="16px" fill="#2f9e44" text-anchor="start" style="white-space: pre;" direction="ltr" dominant-baseline="text-before-edge">connections</text></g><g stroke-opacity="0.5" fill-opacity="0.5" transform="translate(636 588) rotate(0 248.58399963378906 50)"><text x="0" y="0" font-family="Virgil, Segoe UI Emoji" font-size="16px" fill="#1e1e1e" text-anchor="start" style="white-space: pre;" direction="ltr" dominant-baseline="text-before-edge">notes: connections are wholly owned by parent, not children</text><text x="0" y="20" font-family="Virgil, Segoe UI Emoji" font-size="16px" fill="#1e1e1e" text-anchor="start" style="white-space: pre;" direction="ltr" dominant-baseline="text-before-edge">dir = {down, across, up, through}</text><text x="0" y="40" font-family="Virgil, Segoe UI Emoji" font-size="16px" fill="#1e1e1e" text-anchor="start" style="white-space: pre;" direction="ltr" dominant-baseline="text-before-edge">connection == triple {dir, sender, receiver}</text><text x="0" y="60" font-family="Virgil, Segoe UI Emoji" font-size="16px" fill="#1e1e1e" text-anchor="start" style="white-space: pre;" direction="ltr" dominant-baseline="text-before-edge">as drawn: parent (green) is a Container, </text><text x="0" y="80" font-family="Virgil, Segoe UI Emoji" font-size="16px" fill="#1e1e1e" text-anchor="start" style="white-space: pre;" direction="ltr" dominant-baseline="text-before-edge">children (black) dunno (maybe Leaves, maybe other Containers) </text></g></svg>