<svg version="1.1" xmlns="http://www.w3.org/2000/svg" viewBox="0 0 607 650" width="607" height="650">
  <!-- svg-source:excalidraw -->
  
  <defs>
    <style class="style-fonts">
      @font-face {
        font-family: "Virgil";
        src: url("https://excalidraw.com/Virgil.woff2");
      }
      @font-face {
        font-family: "Cascadia";
        src: url("https://excalidraw.com/Cascadia.woff2");
      }
      @font-face {
        font-family: "Assistant";
        src: url("https://excalidraw.com/Assistant-Regular.woff2");
      }
    </style>
    
  </defs>
  <rect x="0" y="0" width="607" height="650" fill="#ffffff"></rect><g stroke-linecap="round" transform="translate(73.5 160) rotate(0 47 36)"><path d="M18 0 C31.73 1.26, 43.73 0.38, 76 0 M18 0 C30.04 0.11, 41.45 -0.66, 76 0 M76 0 C87.4 -0.55, 92.27 5.24, 94 18 M76 0 C88.26 2.19, 93.72 4.25, 94 18 M94 18 C92.6 28.64, 94.52 39.1, 94 54 M94 18 C94.39 30.85, 93.6 45.11, 94 54 M94 54 C93.62 65.58, 89.15 71.37, 76 72 M94 54 C91.92 66.66, 86.31 72.23, 76 72 M76 72 C55.82 73.94, 39.63 71.18, 18 72 M76 72 C61.85 72.18, 46.2 72.17, 18 72 M18 72 C6.28 70.77, 1.03 64.03, 0 54 M18 72 C6.84 71.22, -0.23 65.2, 0 54 M0 54 C-0.48 41.76, -1.84 28.01, 0 18 M0 54 C-0.2 41.14, -1.01 29.96, 0 18 M0 18 C0.26 5.6, 4.22 -0.59, 18 0 M0 18 C0.02 6.57, 6.03 -1.3, 18 0" stroke="#1e1e1e" stroke-width="2" fill="none"></path></g><g stroke-linecap="round" transform="translate(419.5 260) rotate(0 47 36)"><path d="M18 0 C33.07 -1, 53.35 -1.78, 76 0 M18 0 C33.75 -0.76, 50.36 0.82, 76 0 M76 0 C89.18 1.68, 93.25 5.05, 94 18 M76 0 C88.06 1.84, 93.4 4.6, 94 18 M94 18 C93.53 28.28, 95.6 34.36, 94 54 M94 18 C94 31.54, 94.51 44.23, 94 54 M94 54 C93.54 64.18, 86.72 72.22, 76 72 M94 54 C95.2 64.86, 88.51 72.23, 76 72 M76 72 C61.27 71.31, 45.96 70.11, 18 72 M76 72 C52.83 72.58, 30.02 71.54, 18 72 M18 72 C4.49 73.34, 0.29 67.49, 0 54 M18 72 C4.17 72.7, 0.57 65.84, 0 54 M0 54 C1.19 41.9, -1.31 33.19, 0 18 M0 54 C-0.59 42.08, -0.37 30.1, 0 18 M0 18 C0.88 5.16, 5.98 0.16, 18 0 M0 18 C-0.11 5.37, 5.65 -1.16, 18 0" stroke="#1e1e1e" stroke-width="2" fill="none"></path></g><g stroke-linecap="round" transform="translate(262.5 142) rotate(0 47 36)"><path d="M18 0 C32.89 -0.1, 48.48 -0.38, 76 0 M18 0 C31.32 0.39, 43.09 -0.92, 76 0 M76 0 C88.05 1.6, 93.48 4.78, 94 18 M76 0 C86.58 1.59, 95.94 5.18, 94 18 M94 18 C95.43 32.52, 95.2 45.51, 94 54 M94 18 C93.91 30.08, 93.5 44.08, 94 54 M94 54 C95.04 65.01, 88.44 72.2, 76 72 M94 54 C93.13 66.8, 87.26 72.53, 76 72 M76 72 C61.97 71.08, 45.29 70.97, 18 72 M76 72 C56.41 72.21, 38.48 72.28, 18 72 M18 72 C4.41 72.61, 0.5 65.86, 0 54 M18 72 C5.61 71.52, -0.39 67.28, 0 54 M0 54 C1.14 45.58, -0.58 37.72, 0 18 M0 54 C0.64 41.06, 0.19 29.03, 0 18 M0 18 C-0.1 5.45, 5.7 -1.01, 18 0 M0 18 C-1.23 8.14, 7.04 0.12, 18 0" stroke="#1e1e1e" stroke-width="2" fill="none"></path></g><g stroke-linecap="round" transform="translate(410.5 288) rotate(0 8.5 9)"><path d="M7.99 0.24 C9.63 0.01, 11.91 0.24, 13.35 1.4 C14.78 2.55, 16.16 5.28, 16.61 7.16 C17.05 9.04, 16.77 11.02, 16.04 12.68 C15.32 14.34, 13.85 16.26, 12.26 17.1 C10.67 17.94, 8.27 18.21, 6.51 17.72 C4.74 17.23, 2.67 15.73, 1.67 14.16 C0.66 12.58, 0.34 10.19, 0.47 8.27 C0.59 6.34, 1.14 4, 2.4 2.61 C3.67 1.22, 7.03 0.25, 8.07 -0.08 C9.11 -0.4, 8.69 0.44, 8.64 0.65 M10.34 -0.45 C12.16 -0.31, 13.79 1.22, 14.98 2.91 C16.17 4.59, 17.53 7.73, 17.47 9.65 C17.41 11.56, 15.98 12.95, 14.63 14.41 C13.29 15.87, 11.04 18.08, 9.38 18.4 C7.72 18.72, 6.14 17.39, 4.68 16.32 C3.22 15.25, 1.21 13.83, 0.63 11.98 C0.05 10.13, 0.62 6.99, 1.19 5.2 C1.76 3.41, 2.57 2.17, 4.05 1.23 C5.53 0.29, 9.11 -0.3, 10.07 -0.45 C11.03 -0.6, 9.94 0.06, 9.81 0.32" stroke="#1e1e1e" stroke-width="2" fill="none"></path></g><g stroke-linecap="round" transform="translate(160 178) rotate(0 8.5 9)"><path d="M9.43 0.02 C11.25 -0.09, 13.45 0.83, 14.68 2.2 C15.9 3.57, 16.69 6.31, 16.78 8.23 C16.87 10.14, 16.27 12.16, 15.24 13.7 C14.21 15.23, 12.22 16.84, 10.6 17.43 C8.98 18.01, 7.03 18.02, 5.49 17.22 C3.95 16.43, 2.19 14.28, 1.37 12.64 C0.55 10.99, 0.28 9.09, 0.58 7.35 C0.88 5.61, 1.7 3.36, 3.18 2.19 C4.67 1.01, 8.35 0.55, 9.51 0.3 C10.67 0.04, 10.13 0.49, 10.14 0.64 M9.3 -0.03 C10.84 -0.09, 12.76 0.79, 13.98 2.09 C15.21 3.39, 16.44 5.8, 16.67 7.77 C16.9 9.74, 16.4 12.36, 15.36 13.9 C14.32 15.44, 12.29 16.58, 10.43 17.03 C8.58 17.47, 5.85 17.35, 4.23 16.56 C2.61 15.77, 1.23 14.03, 0.7 12.28 C0.16 10.54, 0.56 8.01, 1.03 6.11 C1.49 4.22, 2.11 2, 3.46 0.89 C4.81 -0.22, 8.18 -0.53, 9.13 -0.55 C10.07 -0.57, 9.18 0.58, 9.15 0.76" stroke="#1e1e1e" stroke-width="2" fill="none"></path></g><g stroke-linecap="round" transform="translate(159 203) rotate(0 8.5 9)"><path d="M10.1 0.11 C11.73 0.33, 13.99 1.73, 15.09 3.26 C16.18 4.8, 16.76 7.26, 16.67 9.31 C16.57 11.36, 15.71 14.19, 14.52 15.59 C13.33 16.98, 11.33 17.54, 9.54 17.68 C7.75 17.82, 5.33 17.4, 3.78 16.42 C2.23 15.44, 0.68 13.63, 0.24 11.81 C-0.21 9.99, 0.32 7.3, 1.1 5.48 C1.88 3.65, 3.38 1.65, 4.93 0.86 C6.48 0.07, 9.43 0.86, 10.39 0.74 C11.35 0.62, 10.73 0.12, 10.71 0.15 M9.84 -0.28 C11.51 -0.09, 14.38 1.59, 15.51 3.2 C16.64 4.81, 16.76 7.4, 16.62 9.38 C16.48 11.37, 15.9 13.75, 14.65 15.12 C13.4 16.48, 10.97 17.4, 9.12 17.59 C7.27 17.78, 4.89 17.19, 3.57 16.26 C2.25 15.32, 1.62 13.71, 1.18 11.97 C0.74 10.23, 0.46 7.64, 0.93 5.83 C1.4 4.02, 2.54 2.16, 4.01 1.12 C5.49 0.09, 8.83 -0.28, 9.8 -0.38 C10.78 -0.49, 9.97 0.15, 9.87 0.49" stroke="#1e1e1e" stroke-width="2" fill="none"></path></g><g stroke-linecap="round" transform="translate(254 171) rotate(0 8.5 9)"><path d="M8.68 -0.41 C10.43 -0.56, 12.17 1.09, 13.53 2.31 C14.89 3.53, 16.47 5.16, 16.83 6.93 C17.19 8.7, 16.55 11.25, 15.68 12.95 C14.81 14.64, 13.34 16.26, 11.61 17.11 C9.89 17.95, 7.06 18.55, 5.33 18 C3.59 17.45, 2.09 15.54, 1.2 13.79 C0.31 12.03, -0.36 9.45, -0.03 7.48 C0.29 5.5, 1.81 3.21, 3.16 1.92 C4.52 0.63, 7.19 0.03, 8.11 -0.26 C9.04 -0.55, 8.59 0.04, 8.71 0.18 M8.42 -0.35 C10.26 -0.71, 12.71 -0.15, 14.13 1.08 C15.55 2.3, 16.71 5.02, 16.94 6.98 C17.17 8.95, 16.25 11.13, 15.52 12.87 C14.78 14.6, 13.99 16.59, 12.53 17.38 C11.06 18.17, 8.57 18.23, 6.73 17.63 C4.89 17.03, 2.58 15.45, 1.5 13.78 C0.42 12.11, 0.03 9.5, 0.26 7.59 C0.49 5.68, 1.58 3.61, 2.89 2.31 C4.2 1.01, 7.36 0.18, 8.11 -0.21 C8.86 -0.59, 7.42 -0.1, 7.38 0.01" stroke="#1e1e1e" stroke-width="2" fill="none"></path></g><g stroke-linecap="round" transform="translate(349 172) rotate(0 8.5 9)"><path d="M10.33 -0.21 C12.05 -0.06, 14.33 1.48, 15.46 3.07 C16.59 4.67, 17.2 7.26, 17.12 9.34 C17.03 11.41, 16.21 14.08, 14.94 15.53 C13.67 16.97, 11.28 17.83, 9.52 18.02 C7.77 18.21, 6.01 17.71, 4.41 16.65 C2.81 15.6, 0.6 13.58, -0.08 11.67 C-0.75 9.77, -0.35 7.07, 0.35 5.22 C1.06 3.38, 2.39 1.33, 4.15 0.59 C5.91 -0.14, 9.83 0.83, 10.93 0.8 C12.03 0.77, 10.84 0.32, 10.75 0.42 M7.86 -0.37 C9.43 -0.92, 11.25 -0.41, 12.82 0.72 C14.39 1.84, 16.8 4.3, 17.29 6.38 C17.77 8.46, 16.44 11.41, 15.72 13.2 C14.99 14.98, 14.47 16.22, 12.92 17.09 C11.38 17.95, 8.29 18.94, 6.44 18.37 C4.59 17.8, 2.93 15.28, 1.85 13.67 C0.77 12.06, -0.23 10.56, -0.05 8.72 C0.13 6.88, 1.78 3.96, 2.93 2.62 C4.08 1.28, 6.22 1.13, 6.87 0.67 C7.53 0.22, 6.81 -0.02, 6.87 -0.09" stroke="#1e1e1e" stroke-width="2" fill="none"></path></g><g stroke-linecap="round" transform="translate(505 286) rotate(0 8.5 9)"><path d="M8.3 0.28 C10.03 0.17, 11.94 0.76, 13.39 1.9 C14.84 3.05, 16.5 5.22, 17 7.15 C17.5 9.07, 17.35 11.74, 16.4 13.44 C15.45 15.15, 13.05 16.7, 11.31 17.38 C9.57 18.05, 7.69 18.03, 5.98 17.49 C4.27 16.94, 1.96 15.71, 1.06 14.1 C0.16 12.49, 0.29 9.73, 0.59 7.81 C0.89 5.9, 1.5 3.91, 2.85 2.61 C4.2 1.31, 7.59 0.44, 8.69 0 C9.79 -0.44, 9.44 -0.11, 9.46 -0.01 M9.24 0.62 C10.93 0.45, 12.66 0.78, 13.97 2.06 C15.27 3.35, 16.92 6.3, 17.08 8.35 C17.23 10.4, 15.95 12.73, 14.89 14.37 C13.84 16.02, 12.3 17.8, 10.75 18.23 C9.21 18.66, 7.28 17.83, 5.62 16.95 C3.96 16.08, 1.56 14.64, 0.78 13 C0 11.37, 0.48 9.02, 0.95 7.14 C1.41 5.26, 2.21 2.95, 3.56 1.71 C4.91 0.47, 8.09 0.06, 9.06 -0.28 C10.04 -0.63, 9.34 -0.62, 9.42 -0.35" stroke="#1e1e1e" stroke-width="2" fill="none"></path></g><g stroke-linecap="round"><g transform="translate(180.5 188) rotate(0 36 -5)"><path d="M-0.02 0.92 C5.1 0.76, 25.53 0.13, 31.87 -1.64 C38.21 -3.42, 31.39 -8.54, 38.04 -9.72 C44.68 -10.9, 66.12 -9.11, 71.72 -8.74 M-1.49 0.35 C3.36 0.41, 23.87 0.99, 30.85 -0.45 C37.84 -1.88, 33.6 -6.99, 40.42 -8.26 C47.25 -9.52, 66.28 -8.25, 71.82 -8.03" stroke="#2f9e44" stroke-width="2" fill="none"></path></g><g transform="translate(180.5 188) rotate(0 36 -5)"><path d="M56.03 -3.14 C63.58 -5.26, 67.69 -8.34, 71.82 -8.03 M56.03 -3.14 C60.92 -4.3, 65.71 -5.79, 71.82 -8.03" stroke="#2f9e44" stroke-width="2" fill="none"></path></g><g transform="translate(180.5 188) rotate(0 36 -5)"><path d="M56.59 -14.43 C63.85 -12.08, 67.73 -10.68, 71.82 -8.03 M56.59 -14.43 C61.27 -11.95, 65.88 -9.79, 71.82 -8.03" stroke="#2f9e44" stroke-width="2" fill="none"></path></g></g><mask></mask><g stroke-linecap="round"><g transform="translate(179.5 212) rotate(0 113.5 43.5)"><path d="M0.76 -0.57 C6.53 0.67, 25.33 -5.5, 34.02 7.85 C42.71 21.19, 20.86 66.38, 52.91 79.5 C84.96 92.62, 197.43 85.44, 226.3 86.55 M-0.29 1.74 C5.88 3.14, 26.97 -3.83, 36.22 9.3 C45.47 22.44, 23.57 67.54, 55.23 80.56 C86.89 93.58, 197.41 86.49, 226.18 87.42" stroke="#2f9e44" stroke-width="2" fill="none"></path></g><g transform="translate(179.5 212) rotate(0 113.5 43.5)"><path d="M202.8 96.28 C207.78 92.24, 214.44 89.79, 226.18 87.42 M202.8 96.28 C208.18 93.38, 214.73 92.69, 226.18 87.42" stroke="#2f9e44" stroke-width="2" fill="none"></path></g><g transform="translate(179.5 212) rotate(0 113.5 43.5)"><path d="M202.58 79.18 C207.68 79.5, 214.39 81.41, 226.18 87.42 M202.58 79.18 C207.92 80.71, 214.52 84.43, 226.18 87.42" stroke="#2f9e44" stroke-width="2" fill="none"></path></g></g><mask></mask><g stroke-linecap="round"><g transform="translate(370.5 182) rotate(0 16 57)"><path d="M0.86 -1.07 C3.59 0.75, 13.21 -6.03, 16.13 12.09 C19.05 30.21, 15.7 90.86, 18.39 107.65 C21.08 124.44, 29.98 111.95, 32.26 112.82 M-0.15 0.98 C2.54 3, 12.77 -6.9, 15.77 10.54 C18.77 27.99, 15.01 88.53, 17.83 105.65 C20.64 122.78, 30.51 112.13, 32.64 113.31" stroke="#2f9e44" stroke-width="2" fill="none"></path></g><g transform="translate(370.5 182) rotate(0 16 57)"><path d="M26.34 117.96 C27.36 117.35, 30.52 115.57, 32.64 113.31 M26.34 117.96 C28.57 116.02, 31.13 114.4, 32.64 113.31" stroke="#2f9e44" stroke-width="2" fill="none"></path></g><g transform="translate(370.5 182) rotate(0 16 57)"><path d="M24.83 112.82 C26.31 113.64, 29.91 113.29, 32.64 113.31 M24.83 112.82 C27.61 112.72, 30.7 112.92, 32.64 113.31" stroke="#2f9e44" stroke-width="2" fill="none"></path></g></g><mask></mask><g stroke-linecap="round" transform="translate(62 187) rotate(0 8.5 9)"><path d="M8.67 0.12 C10.31 0.04, 12.38 0.68, 13.82 1.9 C15.25 3.12, 16.99 5.38, 17.27 7.42 C17.55 9.47, 16.47 12.44, 15.52 14.17 C14.57 15.91, 13.33 17.35, 11.57 17.82 C9.82 18.3, 6.81 17.8, 5 17.03 C3.19 16.26, 1.54 14.89, 0.71 13.22 C-0.11 11.54, -0.43 8.82, 0.02 6.97 C0.48 5.13, 1.91 3.31, 3.45 2.13 C4.99 0.95, 8.28 0.16, 9.26 -0.12 C10.23 -0.4, 9.37 0.31, 9.3 0.46 M7.52 -0.23 C9.4 -0.85, 11.65 -0.36, 13.15 0.53 C14.65 1.42, 15.9 3.25, 16.52 5.13 C17.13 7.01, 17.49 9.81, 16.85 11.81 C16.22 13.81, 14.21 16.14, 12.71 17.13 C11.21 18.12, 9.61 17.99, 7.87 17.74 C6.13 17.49, 3.64 16.94, 2.26 15.62 C0.88 14.3, -0.44 11.92, -0.41 9.8 C-0.37 7.67, 1.18 4.46, 2.47 2.85 C3.76 1.24, 6.52 0.63, 7.34 0.13 C8.16 -0.38, 7.5 -0.33, 7.4 -0.18" stroke="#1e1e1e" stroke-width="2" fill="none"></path></g><g stroke-linecap="round" transform="translate(17.5 97) rotate(0 285.5 141)"><path d="M32 0 C214 1.4, 395.87 0.83, 539 0 M32 0 C150.46 1.83, 269.25 1.66, 539 0 M539 0 C561.4 1.92, 572.21 11.11, 571 32 M539 0 C561.88 2.05, 571.45 10.36, 571 32 M571 32 C570.04 116.22, 568.64 203.31, 571 250 M571 32 C571.96 78.42, 572.09 126.74, 571 250 M571 250 C570.14 269.64, 561.17 280.52, 539 282 M571 250 C569.81 269.29, 558.26 281.64, 539 282 M539 282 C414.73 282.91, 290.71 282.73, 32 282 M539 282 C431.84 283.79, 325.66 284.09, 32 282 M32 282 C12.63 281.19, 1.07 271.89, 0 250 M32 282 C9.56 281.44, -2.28 269.11, 0 250 M0 250 C1.29 173.49, 1.13 98.92, 0 32 M0 250 C-1.29 204.6, -1.13 158.03, 0 32 M0 32 C-1.17 8.9, 8.79 -0.2, 32 0 M0 32 C-0.84 11.68, 10.2 0.62, 32 0" stroke="#2f9e44" stroke-width="2" fill="none"></path></g><g stroke-linecap="round" transform="translate(580 284) rotate(0 8.5 9)"><path d="M8.59 -0.12 C10.37 -0.14, 12.91 1.15, 14.2 2.39 C15.5 3.63, 16.01 5.52, 16.35 7.33 C16.7 9.14, 17.03 11.65, 16.28 13.25 C15.52 14.85, 13.53 16.2, 11.85 16.92 C10.17 17.64, 7.99 18.18, 6.19 17.58 C4.39 16.99, 2.02 14.92, 1.02 13.34 C0.02 11.75, -0.14 9.94, 0.17 8.08 C0.48 6.22, 1.44 3.52, 2.87 2.17 C4.31 0.82, 7.78 0.27, 8.81 0.01 C9.84 -0.26, 9.08 0.34, 9.06 0.57 M8.17 0.15 C9.99 0.15, 13.08 1.07, 14.45 2.4 C15.82 3.73, 16.17 6.14, 16.39 8.12 C16.61 10.09, 16.56 12.58, 15.78 14.24 C15 15.9, 13.42 17.64, 11.72 18.08 C10.01 18.52, 7.28 17.62, 5.56 16.86 C3.85 16.1, 2.43 15.09, 1.41 13.5 C0.4 11.91, -0.72 9.14, -0.53 7.33 C-0.34 5.52, 0.96 3.93, 2.54 2.64 C4.11 1.34, 7.83 -0.07, 8.94 -0.45 C10.05 -0.82, 9.31 0.07, 9.19 0.4" stroke="#2f9e44" stroke-width="2" fill="none"></path></g><g stroke-linecap="round" transform="translate(10 187) rotate(0 8.5 9)"><path d="M8.15 -0.1 C10.01 -0.3, 12.5 0.94, 14.01 2.2 C15.53 3.45, 16.87 5.65, 17.24 7.44 C17.61 9.22, 17.18 11.26, 16.24 12.91 C15.3 14.56, 13.33 16.57, 11.59 17.33 C9.86 18.09, 7.6 18.05, 5.83 17.47 C4.06 16.9, 1.91 15.43, 0.96 13.9 C0.01 12.37, -0.22 10.2, 0.14 8.29 C0.51 6.39, 1.81 3.79, 3.14 2.47 C4.48 1.14, 7.21 0.76, 8.15 0.34 C9.09 -0.09, 8.73 -0.22, 8.76 -0.1 M9.5 0.53 C11.32 0.95, 14.37 2.24, 15.55 3.81 C16.73 5.38, 16.69 8.01, 16.59 9.93 C16.48 11.86, 16.05 13.95, 14.92 15.35 C13.79 16.76, 11.59 18.05, 9.79 18.37 C8 18.69, 5.63 18.38, 4.15 17.28 C2.67 16.17, 1.61 13.71, 0.93 11.73 C0.24 9.74, -0.47 7.16, 0.04 5.37 C0.55 3.58, 2.31 1.78, 3.98 0.98 C5.66 0.19, 9.13 0.66, 10.11 0.58 C11.09 0.51, 10.01 0.43, 9.87 0.54" stroke="#2f9e44" stroke-width="2" fill="none"></path></g><g stroke-linecap="round"><g transform="translate(30.499974676139914 197.00000093791868) rotate(0 13.500012661930043 -0.5000004689596835)"><path d="M0.5 -0.01 C5.08 -0.18, 23.04 -0.96, 27.43 -1.2 M0.09 -0.5 C4.64 -0.58, 22.83 -0.5, 27.22 -0.6" stroke="#2f9e44" stroke-width="2" fill="none"></path></g><g transform="translate(30.499974676139914 197.00000093791868) rotate(0 13.500012661930043 -0.5000004689596835)"><path d="M14.56 4.12 C18.26 3.21, 21.74 1.11, 27.22 -0.6 M14.56 4.12 C17.08 3.16, 19.73 2.14, 27.22 -0.6" stroke="#2f9e44" stroke-width="2" fill="none"></path></g><g transform="translate(30.499974676139914 197.00000093791868) rotate(0 13.500012661930043 -0.5000004689596835)"><path d="M14.49 -5.13 C18.19 -3.33, 21.7 -2.72, 27.22 -0.6 M14.49 -5.13 C17.06 -4.09, 19.73 -3.11, 27.22 -0.6" stroke="#2f9e44" stroke-width="2" fill="none"></path></g></g><mask></mask><g stroke-linecap="round"><g transform="translate(527.4999745183381 294.000000542163) rotate(0 23.500012740830925 -0.5000002710814897)"><path d="M0.34 0.28 C8.2 -0.01, 38.98 -1.09, 46.83 -1.24 M-0.15 -0.05 C7.65 -0.03, 38.39 -0.43, 46.31 -0.67" stroke="#2f9e44" stroke-width="2" fill="none"></path></g><g transform="translate(527.4999745183381 294.000000542163) rotate(0 23.500012740830925 -0.5000002710814897)"><path d="M24.39 7.82 C30.11 5.4, 34.41 4.5, 46.31 -0.67 M24.39 7.82 C32.08 4.96, 40.46 1.27, 46.31 -0.67" stroke="#2f9e44" stroke-width="2" fill="none"></path></g><g transform="translate(527.4999745183381 294.000000542163) rotate(0 23.500012740830925 -0.5000002710814897)"><path d="M24.06 -8.26 C29.94 -6.82, 34.31 -3.88, 46.31 -0.67 M24.06 -8.26 C31.86 -5.19, 40.36 -2.95, 46.31 -0.67" stroke="#2f9e44" stroke-width="2" fill="none"></path></g></g><mask></mask><g stroke-linecap="round" transform="translate(135.5 495) rotate(0 47 36)"><path d="M18 0 C34.51 -0.09, 49.03 -1.16, 76 0 M18 0 C41.19 1.15, 62.16 -0.27, 76 0 M76 0 C87.79 1.41, 92.99 5.76, 94 18 M76 0 C90.15 0.87, 91.7 5.02, 94 18 M94 18 C95.83 30.45, 95.3 39.47, 94 54 M94 18 C94.44 26.14, 94.15 34.42, 94 54 M94 54 C95.12 67.52, 86.66 70.77, 76 72 M94 54 C94.99 64.48, 89.53 69.92, 76 72 M76 72 C60.34 73.28, 40.41 70.82, 18 72 M76 72 C53.39 71.9, 32.01 72.63, 18 72 M18 72 C7.54 70.94, -0.88 65.36, 0 54 M18 72 C7.26 70.95, 0.92 66.67, 0 54 M0 54 C-1.4 45.62, -0.83 35.59, 0 18 M0 54 C-0.2 44.05, 0.62 34.17, 0 18 M0 18 C-0.04 4.64, 4.45 1.76, 18 0 M0 18 C-1.85 5.94, 4.31 -1.76, 18 0" stroke="#1e1e1e" stroke-width="2" fill="none"></path></g><g stroke-linecap="round" transform="translate(124 522) rotate(0 8.5 9)"><path d="M9.83 0.13 C11.55 0.4, 14.34 1.57, 15.52 3.16 C16.7 4.76, 17.02 7.84, 16.94 9.73 C16.86 11.61, 16.27 13.11, 15.04 14.48 C13.8 15.86, 11.31 17.7, 9.52 17.99 C7.73 18.28, 5.75 17.22, 4.3 16.23 C2.85 15.25, 1.41 13.91, 0.84 12.1 C0.27 10.28, 0.34 7.13, 0.88 5.35 C1.41 3.57, 2.52 2.25, 4.06 1.41 C5.6 0.57, 9.02 0.5, 10.12 0.33 C11.22 0.16, 10.59 0.23, 10.67 0.4 M10.43 -0.33 C12.31 -0.14, 14.49 1.1, 15.59 2.64 C16.69 4.19, 17.22 6.8, 17.03 8.96 C16.84 11.13, 15.54 14.17, 14.45 15.63 C13.36 17.1, 12.24 17.49, 10.47 17.77 C8.7 18.05, 5.45 18.21, 3.83 17.3 C2.22 16.38, 1.42 14.22, 0.78 12.26 C0.13 10.3, -0.59 7.34, -0.04 5.54 C0.52 3.73, 2.31 2.39, 4.1 1.43 C5.89 0.46, 9.74 -0.01, 10.68 -0.23 C11.62 -0.46, 9.8 -0.06, 9.74 0.1" stroke="#1e1e1e" stroke-width="2" fill="none"></path></g><g stroke-linecap="round" transform="translate(182.5 466) rotate(0 47 36)"><path d="M18 0 C32.71 0.01, 48.91 -0.07, 76 0 M18 0 C33.12 0.69, 47.87 0.17, 76 0 M76 0 C86.49 -1.05, 92.14 7.65, 94 18 M76 0 C88.52 -1.98, 95.14 7.54, 94 18 M94 18 C93.41 29.4, 93.15 39.57, 94 54 M94 18 C93.51 28.04, 94.31 36.97, 94 54 M94 54 C92.04 67.78, 88.37 72.8, 76 72 M94 54 C95.39 66.43, 86.76 72.61, 76 72 M76 72 C54.79 71.9, 36.22 70.53, 18 72 M76 72 C58.76 71.77, 39.15 73.07, 18 72 M18 72 C7.31 73.22, 1.93 66.81, 0 54 M18 72 C8.05 72.95, -0.85 66.6, 0 54 M0 54 C-1.21 45.45, 0.63 34.14, 0 18 M0 54 C0.52 41.25, -0.16 28.41, 0 18 M0 18 C-1.38 7.68, 6.53 0.75, 18 0 M0 18 C-0.42 5.95, 7.98 -0.64, 18 0" stroke="#1e1e1e" stroke-width="2" fill="none"></path></g><g stroke-linecap="round" transform="translate(269 484) rotate(0 8.5 9)"><path d="M8.77 0.23 C10.6 0.29, 13.15 1.39, 14.52 2.57 C15.89 3.76, 16.84 5.57, 16.99 7.36 C17.15 9.14, 16.36 11.58, 15.45 13.29 C14.54 15.01, 13.31 16.95, 11.55 17.67 C9.79 18.38, 6.6 18.32, 4.9 17.6 C3.19 16.87, 2.07 15.07, 1.34 13.33 C0.6 11.59, 0.19 9.05, 0.48 7.14 C0.77 5.24, 1.67 3.14, 3.06 1.9 C4.45 0.65, 7.8 0, 8.83 -0.32 C9.86 -0.65, 9.28 -0.24, 9.23 -0.06 M8.4 0.69 C10.09 0.83, 13.07 1.6, 14.57 2.86 C16.08 4.12, 17.32 6.34, 17.41 8.25 C17.5 10.15, 16.17 12.81, 15.12 14.27 C14.06 15.73, 12.73 16.6, 11.09 16.99 C9.46 17.38, 7.04 17.33, 5.31 16.62 C3.58 15.91, 1.66 14.35, 0.71 12.73 C-0.23 11.1, -0.97 8.64, -0.38 6.86 C0.21 5.08, 2.56 3.26, 4.25 2.05 C5.94 0.85, 9.03 -0.14, 9.76 -0.35 C10.48 -0.56, 8.62 0.51, 8.59 0.79" stroke="#1e1e1e" stroke-width="2" fill="none"></path></g><g stroke-linecap="round" transform="translate(268 509) rotate(0 8.5 9)"><path d="M7.3 0.42 C9 -0.13, 11.29 -0.04, 12.77 0.79 C14.26 1.62, 15.51 3.5, 16.2 5.39 C16.89 7.28, 17.56 10.19, 16.92 12.13 C16.28 14.06, 13.96 16.03, 12.37 17.01 C10.79 17.98, 9.1 18.33, 7.42 17.97 C5.75 17.61, 3.6 16.32, 2.33 14.84 C1.06 13.35, -0.09 11.03, -0.2 9.05 C-0.31 7.06, 0.47 4.46, 1.68 2.92 C2.89 1.39, 6.17 0.29, 7.06 -0.18 C7.96 -0.65, 6.96 -0.14, 7.03 0.1 M7.56 0.37 C9.46 -0.06, 12.1 0.54, 13.54 1.57 C14.99 2.59, 15.7 4.81, 16.21 6.52 C16.72 8.23, 17.22 10.15, 16.63 11.8 C16.05 13.45, 14.4 15.45, 12.71 16.41 C11.02 17.38, 8.44 17.91, 6.51 17.6 C4.57 17.29, 2.06 15.99, 1.1 14.54 C0.13 13.1, 0.42 10.94, 0.72 8.94 C1.01 6.94, 1.84 3.9, 2.87 2.52 C3.9 1.14, 6.04 0.97, 6.88 0.66 C7.73 0.36, 7.7 0.61, 7.93 0.71" stroke="#1e1e1e" stroke-width="2" fill="none"></path></g><g stroke-linecap="round" transform="translate(192.5 517) rotate(0 47 36)"><path d="M18 0 C30.74 -1.71, 46.89 1.18, 76 0 M18 0 C31.91 -0.98, 47.41 -0.73, 76 0 M76 0 C86.81 1.99, 92.78 5.2, 94 18 M76 0 C86.03 -1.96, 94.15 7.47, 94 18 M94 18 C93.22 31.77, 93.91 46.53, 94 54 M94 18 C94 30.09, 94.81 40.45, 94 54 M94 54 C92.99 65.6, 87.53 72.44, 76 72 M94 54 C94.05 64.6, 87.94 72.32, 76 72 M76 72 C55.93 73.1, 34.51 71.31, 18 72 M76 72 C58.3 71.39, 39.32 72.68, 18 72 M18 72 C6.28 73.59, -1.64 66.13, 0 54 M18 72 C4.07 70.19, 1.73 67.69, 0 54 M0 54 C-1.45 40.46, 1.12 27.41, 0 18 M0 54 C0.56 39.66, -0.13 26.71, 0 18 M0 18 C-1.72 6.14, 7.12 0.26, 18 0 M0 18 C1.88 5.52, 4.2 0.15, 18 0" stroke="#1e1e1e" stroke-width="2" fill="none"></path></g><g stroke-linecap="round" transform="translate(279 535) rotate(0 8.5 9)"><path d="M10.22 -0.25 C11.95 -0.07, 13.52 1.67, 14.64 3.12 C15.76 4.56, 16.75 6.58, 16.92 8.44 C17.09 10.29, 16.82 12.78, 15.67 14.27 C14.52 15.76, 11.96 16.94, 10.02 17.39 C8.09 17.83, 5.56 17.73, 4.04 16.96 C2.53 16.19, 1.51 14.6, 0.92 12.76 C0.34 10.92, 0.04 7.81, 0.52 5.91 C1 4, 2.26 2.24, 3.82 1.31 C5.38 0.38, 8.84 0.49, 9.91 0.31 C10.97 0.13, 10.18 0.12, 10.23 0.24 M9.28 -0.06 C10.87 0.18, 13.33 1.74, 14.62 3.12 C15.91 4.5, 16.91 6.28, 17.01 8.2 C17.1 10.12, 16.24 13.03, 15.2 14.62 C14.15 16.21, 12.64 17.3, 10.76 17.75 C8.87 18.19, 5.47 18.16, 3.88 17.3 C2.3 16.44, 1.82 14.39, 1.23 12.58 C0.64 10.76, -0.08 8.24, 0.34 6.41 C0.75 4.59, 2.02 2.8, 3.7 1.65 C5.37 0.49, 9.32 -0.36, 10.4 -0.53 C11.47 -0.7, 10.29 0.27, 10.16 0.62" stroke="#1e1e1e" stroke-width="2" fill="none"></path></g><g stroke-linecap="round" transform="translate(278 560) rotate(0 8.5 9)"><path d="M7.94 0.11 C9.57 -0.07, 12.05 0.47, 13.61 1.57 C15.17 2.68, 16.93 4.9, 17.3 6.77 C17.67 8.63, 16.83 10.98, 15.83 12.75 C14.83 14.51, 12.91 16.48, 11.31 17.36 C9.71 18.23, 7.9 18.64, 6.25 18.01 C4.6 17.37, 2.48 15.26, 1.41 13.55 C0.35 11.85, -0.36 9.61, -0.14 7.77 C0.08 5.94, 1.29 3.85, 2.73 2.53 C4.18 1.22, 7.46 0.28, 8.53 -0.11 C9.6 -0.49, 9.12 -0.02, 9.15 0.22 M6.96 0.28 C8.71 -0.18, 11.27 -0.17, 12.86 0.81 C14.45 1.79, 15.83 4.25, 16.51 6.14 C17.18 8.03, 17.66 10.29, 16.91 12.14 C16.16 13.98, 13.57 16.22, 12 17.2 C10.44 18.18, 9.21 18.41, 7.52 18.02 C5.82 17.63, 3.14 16.34, 1.84 14.86 C0.55 13.38, -0.44 11.2, -0.28 9.14 C-0.12 7.09, 1.48 3.96, 2.8 2.51 C4.13 1.07, 6.92 0.75, 7.66 0.48 C8.41 0.21, 7.43 0.79, 7.27 0.89" stroke="#1e1e1e" stroke-width="2" fill="none"></path></g><g stroke-linecap="round" transform="translate(103.5 424) rotate(0 116.5 108)"><path d="M137.15 2.04 C150.59 2.44, 166.45 8.62, 178.66 15.33 C190.87 22.03, 202.26 31.78, 210.41 42.26 C218.56 52.74, 224 65.6, 227.56 78.19 C231.12 90.78, 232.78 104.78, 231.8 117.82 C230.82 130.86, 227.72 144.7, 221.67 156.44 C215.62 168.18, 205.93 179.72, 195.51 188.26 C185.09 196.81, 172.35 203.16, 159.16 207.71 C145.98 212.26, 130.56 215.52, 116.4 215.56 C102.23 215.6, 87.11 212.52, 74.16 207.95 C61.22 203.37, 48.96 196.62, 38.74 188.09 C28.52 179.55, 19.32 168.52, 12.84 156.73 C6.37 144.95, 1.46 130.45, -0.1 117.38 C-1.66 104.31, -0.54 90.63, 3.46 78.3 C7.46 65.97, 15.41 53.77, 23.91 43.42 C32.4 33.07, 42.69 23.01, 54.41 16.21 C66.13 9.41, 78.43 4.67, 94.23 2.61 C110.02 0.56, 138.24 2.56, 149.2 3.89 C160.16 5.23, 160.53 8.77, 159.99 10.64 M70.24 8.44 C81.56 2.13, 97.34 1.06, 111.13 0.61 C124.92 0.17, 139.56 1.75, 152.99 5.77 C166.42 9.79, 180.65 16.34, 191.71 24.75 C202.76 33.17, 212.41 44.71, 219.33 56.26 C226.25 67.81, 231.72 81.46, 233.22 94.07 C234.73 106.69, 231.89 119.26, 228.37 131.95 C224.84 144.63, 220 159.39, 212.07 170.18 C204.14 180.97, 192.26 189.29, 180.77 196.68 C169.28 204.06, 156.7 211.66, 143.14 214.49 C129.58 217.32, 113.09 215.85, 99.4 213.67 C85.72 211.5, 73.12 207.62, 61.02 201.43 C48.92 195.25, 36.05 186.62, 26.81 176.54 C17.57 166.45, 9.8 153.08, 5.56 140.92 C1.33 128.76, 0.7 116.26, 1.38 103.59 C2.07 90.91, 4.41 76.79, 9.66 64.85 C14.9 52.9, 22.61 41.21, 32.86 31.94 C43.1 22.67, 64.8 12.9, 71.12 9.22 C77.45 5.54, 70.5 8.11, 70.81 9.86" stroke="#e03131" stroke-width="4" fill="none"></path></g><g stroke-linecap="round"><g transform="translate(150.5 447) rotate(0 76.5 80.5)"><path d="M-0.94 0.25 C24.69 26.89, 128.51 133.71, 154.01 160.46 M0.77 -0.66 C26.3 26.08, 127.97 134.62, 153.59 161.72" stroke="#e03131" stroke-width="4" fill="none"></path></g></g><mask></mask><g transform="translate(109.5 10) rotate(0 159.28001403808594 37.5)"><text x="0" y="0" font-family="Virgil, Segoe UI Emoji" font-size="20px" fill="#1e1e1e" text-anchor="start" style="white-space: pre;" direction="ltr" dominant-baseline="text-before-edge">The green arrows are controlled</text><text x="0" y="25" font-family="Virgil, Segoe UI Emoji" font-size="20px" fill="#1e1e1e" text-anchor="start" style="white-space: pre;" direction="ltr" dominant-baseline="text-before-edge">by the green Container, not its </text><text x="0" y="50" font-family="Virgil, Segoe UI Emoji" font-size="20px" fill="#1e1e1e" text-anchor="start" style="white-space: pre;" direction="ltr" dominant-baseline="text-before-edge">children (black)</text></g></svg>