<svg version="1.1" xmlns="http://www.w3.org/2000/svg" viewBox="0 0 1246.9999389648438 1015" width="1246.9999389648438" height="1015">
  <!-- svg-source:excalidraw -->
  
  <defs>
    <style class="style-fonts">
      @font-face {
        font-family: "Virgil";
        src: url("https://excalidraw.com/Virgil.woff2");
      }
      @font-face {
        font-family: "Cascadia";
        src: url("https://excalidraw.com/Cascadia.woff2");
      }
      @font-face {
        font-family: "Assistant";
        src: url("https://excalidraw.com/Assistant-Regular.woff2");
      }
    </style>
    
  </defs>
  <rect x="0" y="0" width="1246.9999389648438" height="1015" fill="#ffffff"></rect><g stroke-linecap="round" transform="translate(293 341) rotate(0 66.5 42.5)"><path d="M21.25 0 C52.4 1.58, 81.77 0.54, 111.75 0 M21.25 0 C42.56 -1.38, 65.79 -0.13, 111.75 0 M111.75 0 C125.42 -0.32, 131.95 7.93, 133 21.25 M111.75 0 C126.33 -0.4, 133.2 6.86, 133 21.25 M133 21.25 C133.64 34.66, 133.21 49.97, 133 63.75 M133 21.25 C133.69 33.16, 132.69 43.77, 133 63.75 M133 63.75 C133.53 79.22, 127.81 85.65, 111.75 85 M133 63.75 C133.91 79.86, 126.34 86.16, 111.75 85 M111.75 85 C87.7 85.38, 64.19 84.35, 21.25 85 M111.75 85 C82.83 85.93, 55.77 85.54, 21.25 85 M21.25 85 C5.39 84.07, -1.64 79.69, 0 63.75 M21.25 85 C7.39 83.48, -1.76 78.65, 0 63.75 M0 63.75 C-1.72 50.41, -0.07 34.85, 0 21.25 M0 63.75 C-0.47 52.64, -0.01 40.58, 0 21.25 M0 21.25 C0.73 9.06, 5.75 1.87, 21.25 0 M0 21.25 C-1.87 7.16, 5.05 -1.12, 21.25 0" stroke="#1e1e1e" stroke-width="2" fill="none"></path></g><g transform="translate(324.7299995422363 371) rotate(0 34.77000045776367 12.5)"><text x="34.77000045776367" y="0" font-family="Virgil, Segoe UI Emoji" font-size="20px" fill="#1e1e1e" text-anchor="middle" style="white-space: pre;" direction="ltr" dominant-baseline="text-before-edge">Control</text></g><g stroke-linecap="round" transform="translate(283 371) rotate(0 8.5 8)"><path d="M6.97 -0.12 C8.69 -0.56, 11.16 0.03, 12.79 0.8 C14.42 1.57, 16.06 2.85, 16.73 4.5 C17.4 6.16, 17.45 8.96, 16.8 10.71 C16.14 12.47, 14.29 14.11, 12.78 15.03 C11.28 15.96, 9.44 16.53, 7.76 16.27 C6.08 16.01, 4.05 14.8, 2.7 13.46 C1.35 12.13, -0.22 9.93, -0.32 8.27 C-0.42 6.61, 0.91 4.87, 2.09 3.51 C3.28 2.16, 6.03 0.6, 6.77 0.14 C7.5 -0.31, 6.49 0.69, 6.5 0.79 M10.18 0.13 C11.97 0.4, 14.23 1.76, 15.45 2.95 C16.67 4.14, 17.63 5.48, 17.5 7.27 C17.38 9.05, 15.96 12.14, 14.71 13.65 C13.46 15.15, 11.68 16.02, 10 16.28 C8.33 16.54, 6.27 16, 4.64 15.21 C3.01 14.43, 0.9 13.27, 0.23 11.58 C-0.44 9.88, 0.04 6.8, 0.62 5.03 C1.2 3.26, 2.31 1.64, 3.72 0.94 C5.12 0.25, 8.15 1.07, 9.06 0.84 C9.97 0.61, 9.14 -0.31, 9.17 -0.42" stroke="#1e1e1e" stroke-width="2" fill="none"></path></g><g stroke-linecap="round" transform="translate(417.5 372) rotate(0 8.5 8)"><path d="M10.14 0.05 C11.75 0.44, 13.71 2.35, 14.79 3.66 C15.86 4.98, 16.66 6.4, 16.6 7.94 C16.54 9.49, 15.6 11.63, 14.43 12.95 C13.27 14.26, 11.27 15.59, 9.59 15.83 C7.91 16.06, 5.95 15.35, 4.35 14.36 C2.76 13.36, 0.63 11.53, 0.03 9.87 C-0.58 8.22, -0.06 5.87, 0.72 4.43 C1.5 2.98, 3.02 1.98, 4.71 1.22 C6.4 0.47, 9.83 0.09, 10.84 -0.09 C11.85 -0.28, 10.83 -0.14, 10.77 0.09 M7.63 -0.29 C9.33 -0.79, 11.17 -0.11, 12.64 0.71 C14.11 1.53, 15.81 2.9, 16.43 4.62 C17.06 6.34, 17.11 9.44, 16.39 11.05 C15.67 12.66, 13.59 13.61, 12.1 14.3 C10.62 15, 9.24 15.39, 7.46 15.22 C5.69 15.05, 2.77 14.41, 1.45 13.26 C0.13 12.11, -0.66 9.98, -0.46 8.32 C-0.26 6.67, 1.34 4.68, 2.63 3.32 C3.93 1.96, 6.56 0.8, 7.29 0.17 C8.03 -0.46, 7.05 -0.67, 7.05 -0.45" stroke="#1e1e1e" stroke-width="2" fill="none"></path></g><g stroke-linecap="round" transform="translate(551.25 342.5) rotate(0 66.5 42.5)"><path d="M21.25 0 C46.7 2.64, 73.12 -0.82, 111.75 0 M21.25 0 C39.7 1.15, 59 0.25, 111.75 0 M111.75 0 C125.92 -0.95, 134.63 7.8, 133 21.25 M111.75 0 C126.61 1.4, 131.66 7.07, 133 21.25 M133 21.25 C131.65 34.09, 132.56 46.71, 133 63.75 M133 21.25 C132.05 37.34, 132.26 52.36, 133 63.75 M133 63.75 C134.6 79.7, 124.83 86.64, 111.75 85 M133 63.75 C132.77 78.82, 125.64 83.46, 111.75 85 M111.75 85 C93.76 85.23, 72.65 86.24, 21.25 85 M111.75 85 C79.63 85.1, 45.81 84.93, 21.25 85 M21.25 85 C7.17 83.53, 1.24 75.97, 0 63.75 M21.25 85 C7.74 85.18, -0.27 79.82, 0 63.75 M0 63.75 C0.49 54.6, 2.2 43.95, 0 21.25 M0 63.75 C0.25 47.8, -0.86 32.89, 0 21.25 M0 21.25 C-0.02 7.31, 6.52 -0.33, 21.25 0 M0 21.25 C-1.27 5.88, 5.77 1.87, 21.25 0" stroke="#1e1e1e" stroke-width="2" fill="none"></path></g><g transform="translate(597.2700004577637 372.5) rotate(0 20.479999542236328 12.5)"><text x="20.479999542236328" y="0" font-family="Virgil, Segoe UI Emoji" font-size="20px" fill="#1e1e1e" text-anchor="middle" style="white-space: pre;" direction="ltr" dominant-baseline="text-before-edge">GUI</text></g><g stroke-linecap="round" transform="translate(541.25 372.5) rotate(0 8.5 8)"><path d="M6.39 -0.26 C8.17 -0.7, 11.13 -0.32, 12.76 0.57 C14.38 1.47, 15.55 3.36, 16.15 5.09 C16.74 6.82, 16.82 9.32, 16.32 10.97 C15.81 12.62, 14.56 14.21, 13.1 14.98 C11.63 15.76, 9.35 15.88, 7.52 15.62 C5.69 15.35, 3.41 14.58, 2.11 13.4 C0.82 12.22, -0.17 10.31, -0.26 8.54 C-0.35 6.77, 0.33 4.27, 1.58 2.78 C2.83 1.29, 6.15 0.04, 7.23 -0.42 C8.32 -0.88, 8.1 -0.14, 8.09 0.01 M10.26 0.74 C11.99 0.96, 13.28 2.04, 14.39 3.24 C15.5 4.45, 16.8 6.47, 16.92 7.99 C17.04 9.52, 16.33 11.02, 15.12 12.4 C13.92 13.79, 11.39 15.75, 9.68 16.31 C7.96 16.86, 6.37 16.58, 4.85 15.72 C3.33 14.86, 1.26 12.76, 0.57 11.15 C-0.12 9.53, 0.16 7.63, 0.73 6.03 C1.3 4.42, 2.39 2.53, 3.97 1.51 C5.56 0.49, 9.32 0.16, 10.25 -0.1 C11.18 -0.37, 9.66 -0.15, 9.54 -0.08" stroke="#1e1e1e" stroke-width="2" fill="none"></path></g><g stroke-linecap="round" transform="translate(675.75 373.5) rotate(0 8.5 8)"><path d="M7.41 -0.32 C9.13 -0.59, 11.17 0.14, 12.66 1.17 C14.14 2.2, 15.66 4.21, 16.32 5.86 C16.98 7.51, 17.17 9.59, 16.59 11.07 C16.02 12.55, 14.5 13.92, 12.87 14.73 C11.24 15.55, 8.69 16.19, 6.81 15.96 C4.93 15.72, 2.77 14.74, 1.59 13.34 C0.41 11.95, -0.36 9.44, -0.28 7.58 C-0.2 5.72, 0.74 3.49, 2.07 2.21 C3.4 0.93, 6.84 0.29, 7.72 -0.11 C8.6 -0.51, 7.33 -0.31, 7.34 -0.19 M8.14 0.61 C9.76 0.46, 12.49 1.27, 13.93 2.2 C15.37 3.12, 16.57 4.43, 16.79 6.15 C17.01 7.88, 16.07 10.86, 15.22 12.53 C14.37 14.2, 13.3 15.67, 11.68 16.18 C10.06 16.7, 7.19 16.26, 5.49 15.63 C3.78 15.01, 2.33 13.9, 1.43 12.44 C0.54 10.97, -0.24 8.64, 0.14 6.85 C0.51 5.05, 2.28 2.86, 3.67 1.66 C5.06 0.47, 7.64 0.03, 8.46 -0.31 C9.28 -0.65, 8.49 -0.45, 8.58 -0.39" stroke="#1e1e1e" stroke-width="2" fill="none"></path></g><g stroke-linecap="round"><g transform="translate(437 381) rotate(0 50.5 1)"><path d="M-0.2 0.18 C16.44 0.68, 83.62 1.81, 100.62 2.21 M-1.77 -0.77 C14.61 -0.59, 82.27 -0.03, 99.48 0.2" stroke="#1e1e1e" stroke-width="2" fill="none"></path></g><g transform="translate(437 381) rotate(0 50.5 1)"><path d="M75.9 8.5 C84.86 4.89, 93.51 3.82, 99.48 0.2 M75.9 8.5 C83.49 5.39, 92.38 3.18, 99.48 0.2" stroke="#1e1e1e" stroke-width="2" fill="none"></path></g><g transform="translate(437 381) rotate(0 50.5 1)"><path d="M76.08 -8.6 C84.85 -5.98, 93.44 -0.81, 99.48 0.2 M76.08 -8.6 C83.7 -5.73, 92.53 -1.95, 99.48 0.2" stroke="#1e1e1e" stroke-width="2" fill="none"></path></g></g><mask></mask><g stroke-linecap="round"><g transform="translate(694.6979982801937 383) rotate(0 -206.84034201471707 -61)"><path d="M-0.93 -0.81 C11.96 -4.88, 73.28 -3.33, 77.76 -23.63 C82.24 -43.94, 111.89 -106.38, 25.96 -122.63 C-59.96 -138.89, -351.53 -137.64, -437.79 -121.18 C-524.05 -104.72, -494.44 -43.14, -491.59 -23.87 C-488.75 -4.6, -432.52 -8.71, -420.74 -5.56 M0.79 1.37 C13.47 -2.62, 72.71 -1.92, 76.79 -22.43 C80.87 -42.93, 110.96 -105.36, 25.26 -121.65 C-60.44 -137.94, -351.03 -136.55, -437.43 -120.17 C-523.82 -103.8, -495.56 -42.91, -493.12 -23.42 C-490.67 -3.93, -434.91 -6.09, -422.75 -3.24" stroke="#1e1e1e" stroke-width="2" fill="none"></path></g><g transform="translate(694.6979982801937 383) rotate(0 -206.84034201471707 -61)"><path d="M-446.95 3.03 C-440.17 1.01, -431.7 -0.82, -422.75 -3.24 M-446.95 3.03 C-441.06 1.62, -434.61 -0.5, -422.75 -3.24" stroke="#1e1e1e" stroke-width="2" fill="none"></path></g><g transform="translate(694.6979982801937 383) rotate(0 -206.84034201471707 -61)"><path d="M-445.31 -14 C-438.98 -10.28, -431.06 -6.36, -422.75 -3.24 M-445.31 -14 C-439.8 -11.2, -433.75 -9.11, -422.75 -3.24" stroke="#1e1e1e" stroke-width="2" fill="none"></path></g></g><mask></mask><g transform="translate(233 527) rotate(0 159.66000366210938 50)"><text x="0" y="0" font-family="Virgil, Segoe UI Emoji" font-size="20px" fill="#1e1e1e" text-anchor="start" style="white-space: pre;" direction="ltr" dominant-baseline="text-before-edge">#!/bin/bash</text><text x="0" y="25" font-family="Virgil, Segoe UI Emoji" font-size="20px" fill="#1e1e1e" text-anchor="start" style="white-space: pre;" direction="ltr" dominant-baseline="text-before-edge">exec 3&lt;&gt;/dev/tcp/"$1"/80</text><text x="0" y="50" font-family="Virgil, Segoe UI Emoji" font-size="20px" fill="#1e1e1e" text-anchor="start" style="white-space: pre;" direction="ltr" dominant-baseline="text-before-edge">echo -e "GET / HTTP/1.1\n" &gt;&amp;3</text><text x="0" y="75" font-family="Virgil, Segoe UI Emoji" font-size="20px" fill="#1e1e1e" text-anchor="start" style="white-space: pre;" direction="ltr" dominant-baseline="text-before-edge">cat &lt;&amp;3</text></g><g transform="translate(735 540) rotate(0 81.07000732421875 112.5)"><text x="0" y="0" font-family="Virgil, Segoe UI Emoji" font-size="20px" fill="#1e1e1e" text-anchor="start" style="white-space: pre;" direction="ltr" dominant-baseline="text-before-edge"># host machine:</text><text x="0" y="25" font-family="Virgil, Segoe UI Emoji" font-size="20px" fill="#1e1e1e" text-anchor="start" style="white-space: pre;" direction="ltr" dominant-baseline="text-before-edge">ztcp -l 7128</text><text x="0" y="50" font-family="Virgil, Segoe UI Emoji" font-size="20px" fill="#1e1e1e" text-anchor="start" style="white-space: pre;" direction="ltr" dominant-baseline="text-before-edge">lfd=$REPLY</text><text x="0" y="75" font-family="Virgil, Segoe UI Emoji" font-size="20px" fill="#1e1e1e" text-anchor="start" style="white-space: pre;" direction="ltr" dominant-baseline="text-before-edge">ztcp -a $lfd</text><text x="0" y="100" font-family="Virgil, Segoe UI Emoji" font-size="20px" fill="#1e1e1e" text-anchor="start" style="white-space: pre;" direction="ltr" dominant-baseline="text-before-edge">talkfd=$REPLY</text><text x="0" y="125" font-family="Virgil, Segoe UI Emoji" font-size="20px" fill="#1e1e1e" text-anchor="start" style="white-space: pre;" direction="ltr" dominant-baseline="text-before-edge"></text><text x="0" y="150" font-family="Virgil, Segoe UI Emoji" font-size="20px" fill="#1e1e1e" text-anchor="start" style="white-space: pre;" direction="ltr" dominant-baseline="text-before-edge"># client machine</text><text x="0" y="175" font-family="Virgil, Segoe UI Emoji" font-size="20px" fill="#1e1e1e" text-anchor="start" style="white-space: pre;" direction="ltr" dominant-baseline="text-before-edge">ztcp HOST 7128</text><text x="0" y="200" font-family="Virgil, Segoe UI Emoji" font-size="20px" fill="#1e1e1e" text-anchor="start" style="white-space: pre;" direction="ltr" dominant-baseline="text-before-edge">talkfd=$REPLY</text></g><g transform="translate(743 811) rotate(0 191.9700164794922 75)"><text x="0" y="0" font-family="Virgil, Segoe UI Emoji" font-size="20px" fill="#1e1e1e" text-anchor="start" style="white-space: pre;" direction="ltr" dominant-baseline="text-before-edge"># host machine</text><text x="0" y="25" font-family="Virgil, Segoe UI Emoji" font-size="20px" fill="#1e1e1e" text-anchor="start" style="white-space: pre;" direction="ltr" dominant-baseline="text-before-edge">echo -e "hello!" &gt;&amp;$talkfd</text><text x="0" y="50" font-family="Virgil, Segoe UI Emoji" font-size="20px" fill="#1e1e1e" text-anchor="start" style="white-space: pre;" direction="ltr" dominant-baseline="text-before-edge"></text><text x="0" y="75" font-family="Virgil, Segoe UI Emoji" font-size="20px" fill="#1e1e1e" text-anchor="start" style="white-space: pre;" direction="ltr" dominant-baseline="text-before-edge"># client machine</text><text x="0" y="100" font-family="Virgil, Segoe UI Emoji" font-size="20px" fill="#1e1e1e" text-anchor="start" style="white-space: pre;" direction="ltr" dominant-baseline="text-before-edge">read -r line &lt;&amp;$talkfd; print -r - $line</text><text x="0" y="125" font-family="Virgil, Segoe UI Emoji" font-size="20px" fill="#1e1e1e" text-anchor="start" style="white-space: pre;" direction="ltr" dominant-baseline="text-before-edge">&gt; hello!</text></g><g transform="translate(931 559) rotate(0 140.19000244140625 62.5)"><text x="0" y="0" font-family="Virgil, Segoe UI Emoji" font-size="20px" fill="#f08c00" text-anchor="start" style="white-space: pre;" direction="ltr" dominant-baseline="text-before-edge">There is no single host and </text><text x="0" y="25" font-family="Virgil, Segoe UI Emoji" font-size="20px" fill="#f08c00" text-anchor="start" style="white-space: pre;" direction="ltr" dominant-baseline="text-before-edge">no single client</text><text x="0" y="50" font-family="Virgil, Segoe UI Emoji" font-size="20px" fill="#f08c00" text-anchor="start" style="white-space: pre;" direction="ltr" dominant-baseline="text-before-edge"></text><text x="0" y="75" font-family="Virgil, Segoe UI Emoji" font-size="20px" fill="#f08c00" text-anchor="start" style="white-space: pre;" direction="ltr" dominant-baseline="text-before-edge">GUI is the host for Control</text><text x="0" y="100" font-family="Virgil, Segoe UI Emoji" font-size="20px" fill="#f08c00" text-anchor="start" style="white-space: pre;" direction="ltr" dominant-baseline="text-before-edge">Control is the host for GUI</text></g><g transform="translate(721 483) rotate(0 61.06999588012695 12.5)"><text x="0" y="0" font-family="Virgil, Segoe UI Emoji" font-size="20px" fill="#f08c00" text-anchor="start" style="white-space: pre;" direction="ltr" dominant-baseline="text-before-edge">Zsh syntax </text></g><g transform="translate(230 481) rotate(0 59.84999465942383 12.5)"><text x="0" y="0" font-family="Virgil, Segoe UI Emoji" font-size="20px" fill="#f08c00" text-anchor="start" style="white-space: pre;" direction="ltr" dominant-baseline="text-before-edge">bash syntax</text></g><g transform="translate(631 980) rotate(0 302.9999694824219 12.5)"><text x="0" y="0" font-family="Virgil, Segoe UI Emoji" font-size="20px" fill="#f08c00" text-anchor="start" style="white-space: pre;" direction="ltr" dominant-baseline="text-before-edge">https://who23.github.io/2020/12/03/sockets-in-your-shell.html</text></g><g transform="translate(10 10) rotate(0 173.62001037597656 103.88942053400835)"><text x="0" y="0" font-family="Virgil, Segoe UI Emoji" font-size="20.777884106801654px" fill="#1971c2" text-anchor="start" style="white-space: pre;" direction="ltr" dominant-baseline="text-before-edge">The diagram and the code</text><text x="0" y="25.972355133502067" font-family="Virgil, Segoe UI Emoji" font-size="20.777884106801654px" fill="#1971c2" text-anchor="start" style="white-space: pre;" direction="ltr" dominant-baseline="text-before-edge">accomplish the same thing, </text><text x="0" y="51.94471026700413" font-family="Virgil, Segoe UI Emoji" font-size="20.777884106801654px" fill="#1971c2" text-anchor="start" style="white-space: pre;" direction="ltr" dominant-baseline="text-before-edge">but, the diagram is a better</text><text x="0" y="77.9170654005062" font-family="Virgil, Segoe UI Emoji" font-size="20.777884106801654px" fill="#1971c2" text-anchor="start" style="white-space: pre;" direction="ltr" dominant-baseline="text-before-edge">expression of the situation.</text><text x="0" y="103.88942053400827" font-family="Virgil, Segoe UI Emoji" font-size="20.777884106801654px" fill="#1971c2" text-anchor="start" style="white-space: pre;" direction="ltr" dominant-baseline="text-before-edge"></text><text x="0" y="129.86177566751033" font-family="Virgil, Segoe UI Emoji" font-size="20.777884106801654px" fill="#1971c2" text-anchor="start" style="white-space: pre;" direction="ltr" dominant-baseline="text-before-edge">Furthermore, the diagram does</text><text x="0" y="155.8341308010124" font-family="Virgil, Segoe UI Emoji" font-size="20.777884106801654px" fill="#1971c2" text-anchor="start" style="white-space: pre;" direction="ltr" dominant-baseline="text-before-edge">not insist on the need to choose </text><text x="0" y="181.80648593451446" font-family="Virgil, Segoe UI Emoji" font-size="20.777884106801654px" fill="#1971c2" text-anchor="start" style="white-space: pre;" direction="ltr" dominant-baseline="text-before-edge">a HOST and a CLIENT</text></g></svg>